<mxfile host="Electron" modified="2023-09-27T15:00:47.432Z" agent="Mozilla/5.0 (Windows NT 10.0; Win64; x64) AppleWebKit/537.36 (KHTML, like Gecko) draw.io/21.6.8 Chrome/114.0.5735.289 Electron/25.5.0 Safari/537.36" etag="fYvX6QwJwtZomz2Tq7nq" version="21.6.8" type="device">
  <diagram id="R2lEEEUBdFMjLlhIrx00" name="Page-1">
    <mxGraphModel dx="1221" dy="717" grid="1" gridSize="10" guides="1" tooltips="1" connect="1" arrows="1" fold="1" page="1" pageScale="1" pageWidth="850" pageHeight="1100" math="0" shadow="0" extFonts="Permanent Marker^https://fonts.googleapis.com/css?family=Permanent+Marker">
      <root>
        <mxCell id="0" />
        <mxCell id="1" parent="0" />
        <mxCell id="DOXmJgNx25OAnM6Lbmhb-27" value="" style="group" parent="1" vertex="1" connectable="0">
          <mxGeometry x="80" y="280" width="230" height="190" as="geometry" />
        </mxCell>
        <mxCell id="DOXmJgNx25OAnM6Lbmhb-25" value="" style="endArrow=none;html=1;rounded=0;" parent="DOXmJgNx25OAnM6Lbmhb-27" edge="1">
          <mxGeometry width="50" height="50" relative="1" as="geometry">
            <mxPoint x="30" y="190" as="sourcePoint" />
            <mxPoint x="30" y="150" as="targetPoint" />
          </mxGeometry>
        </mxCell>
        <mxCell id="DOXmJgNx25OAnM6Lbmhb-26" value="" style="group" parent="DOXmJgNx25OAnM6Lbmhb-27" vertex="1" connectable="0">
          <mxGeometry width="230" height="190" as="geometry" />
        </mxCell>
        <mxCell id="DOXmJgNx25OAnM6Lbmhb-8" value="User" style="shape=table;startSize=30;container=1;collapsible=1;childLayout=tableLayout;fixedRows=1;rowLines=0;fontStyle=1;align=center;resizeLast=1;html=1;" parent="DOXmJgNx25OAnM6Lbmhb-26" vertex="1">
          <mxGeometry width="230" height="190" as="geometry" />
        </mxCell>
        <mxCell id="DOXmJgNx25OAnM6Lbmhb-9" value="" style="shape=tableRow;horizontal=0;startSize=0;swimlaneHead=0;swimlaneBody=0;fillColor=none;collapsible=0;dropTarget=0;points=[[0,0.5],[1,0.5]];portConstraint=eastwest;top=0;left=0;right=0;bottom=1;" parent="DOXmJgNx25OAnM6Lbmhb-8" vertex="1">
          <mxGeometry y="30" width="230" height="30" as="geometry" />
        </mxCell>
        <mxCell id="DOXmJgNx25OAnM6Lbmhb-10" value="PK" style="shape=partialRectangle;connectable=0;fillColor=none;top=0;left=0;bottom=0;right=0;fontStyle=1;overflow=hidden;whiteSpace=wrap;html=1;" parent="DOXmJgNx25OAnM6Lbmhb-9" vertex="1">
          <mxGeometry width="30.000000000000057" height="30" as="geometry">
            <mxRectangle width="30.000000000000057" height="30" as="alternateBounds" />
          </mxGeometry>
        </mxCell>
        <mxCell id="DOXmJgNx25OAnM6Lbmhb-11" value="UserID" style="shape=partialRectangle;connectable=0;fillColor=none;top=0;left=0;bottom=0;right=0;align=left;spacingLeft=6;fontStyle=5;overflow=hidden;whiteSpace=wrap;html=1;" parent="DOXmJgNx25OAnM6Lbmhb-9" vertex="1">
          <mxGeometry x="30.000000000000057" width="199.99999999999994" height="30" as="geometry">
            <mxRectangle width="199.99999999999994" height="30" as="alternateBounds" />
          </mxGeometry>
        </mxCell>
        <mxCell id="DOXmJgNx25OAnM6Lbmhb-12" value="" style="shape=tableRow;horizontal=0;startSize=0;swimlaneHead=0;swimlaneBody=0;fillColor=none;collapsible=0;dropTarget=0;points=[[0,0.5],[1,0.5]];portConstraint=eastwest;top=0;left=0;right=0;bottom=0;" parent="DOXmJgNx25OAnM6Lbmhb-8" vertex="1">
          <mxGeometry y="60" width="230" height="30" as="geometry" />
        </mxCell>
        <mxCell id="DOXmJgNx25OAnM6Lbmhb-13" value="" style="shape=partialRectangle;connectable=0;fillColor=none;top=0;left=0;bottom=0;right=0;editable=1;overflow=hidden;whiteSpace=wrap;html=1;" parent="DOXmJgNx25OAnM6Lbmhb-12" vertex="1">
          <mxGeometry width="30.000000000000057" height="30" as="geometry">
            <mxRectangle width="30.000000000000057" height="30" as="alternateBounds" />
          </mxGeometry>
        </mxCell>
        <mxCell id="DOXmJgNx25OAnM6Lbmhb-14" value="Username" style="shape=partialRectangle;connectable=0;fillColor=none;top=0;left=0;bottom=0;right=0;align=left;spacingLeft=6;overflow=hidden;whiteSpace=wrap;html=1;" parent="DOXmJgNx25OAnM6Lbmhb-12" vertex="1">
          <mxGeometry x="30.000000000000057" width="199.99999999999994" height="30" as="geometry">
            <mxRectangle width="199.99999999999994" height="30" as="alternateBounds" />
          </mxGeometry>
        </mxCell>
        <mxCell id="DOXmJgNx25OAnM6Lbmhb-15" value="" style="shape=tableRow;horizontal=0;startSize=0;swimlaneHead=0;swimlaneBody=0;fillColor=none;collapsible=0;dropTarget=0;points=[[0,0.5],[1,0.5]];portConstraint=eastwest;top=0;left=0;right=0;bottom=0;" parent="DOXmJgNx25OAnM6Lbmhb-8" vertex="1">
          <mxGeometry y="90" width="230" height="30" as="geometry" />
        </mxCell>
        <mxCell id="DOXmJgNx25OAnM6Lbmhb-16" value="" style="shape=partialRectangle;connectable=0;fillColor=none;top=0;left=0;bottom=0;right=0;editable=1;overflow=hidden;whiteSpace=wrap;html=1;" parent="DOXmJgNx25OAnM6Lbmhb-15" vertex="1">
          <mxGeometry width="30.000000000000057" height="30" as="geometry">
            <mxRectangle width="30.000000000000057" height="30" as="alternateBounds" />
          </mxGeometry>
        </mxCell>
        <mxCell id="DOXmJgNx25OAnM6Lbmhb-17" value="Password" style="shape=partialRectangle;connectable=0;fillColor=none;top=0;left=0;bottom=0;right=0;align=left;spacingLeft=6;overflow=hidden;whiteSpace=wrap;html=1;" parent="DOXmJgNx25OAnM6Lbmhb-15" vertex="1">
          <mxGeometry x="30.000000000000057" width="199.99999999999994" height="30" as="geometry">
            <mxRectangle width="199.99999999999994" height="30" as="alternateBounds" />
          </mxGeometry>
        </mxCell>
        <mxCell id="DOXmJgNx25OAnM6Lbmhb-18" value="" style="shape=tableRow;horizontal=0;startSize=0;swimlaneHead=0;swimlaneBody=0;fillColor=none;collapsible=0;dropTarget=0;points=[[0,0.5],[1,0.5]];portConstraint=eastwest;top=0;left=0;right=0;bottom=0;" parent="DOXmJgNx25OAnM6Lbmhb-8" vertex="1">
          <mxGeometry y="120" width="230" height="30" as="geometry" />
        </mxCell>
        <mxCell id="DOXmJgNx25OAnM6Lbmhb-19" value="" style="shape=partialRectangle;connectable=0;fillColor=none;top=0;left=0;bottom=0;right=0;editable=1;overflow=hidden;whiteSpace=wrap;html=1;" parent="DOXmJgNx25OAnM6Lbmhb-18" vertex="1">
          <mxGeometry width="30.000000000000057" height="30" as="geometry">
            <mxRectangle width="30.000000000000057" height="30" as="alternateBounds" />
          </mxGeometry>
        </mxCell>
        <mxCell id="DOXmJgNx25OAnM6Lbmhb-20" value="Email" style="shape=partialRectangle;connectable=0;fillColor=none;top=0;left=0;bottom=0;right=0;align=left;spacingLeft=6;overflow=hidden;whiteSpace=wrap;html=1;" parent="DOXmJgNx25OAnM6Lbmhb-18" vertex="1">
          <mxGeometry x="30.000000000000057" width="199.99999999999994" height="30" as="geometry">
            <mxRectangle width="199.99999999999994" height="30" as="alternateBounds" />
          </mxGeometry>
        </mxCell>
        <mxCell id="DOXmJgNx25OAnM6Lbmhb-23" value="UserType (Business/Consumer)" style="shape=partialRectangle;connectable=0;fillColor=none;top=0;left=0;bottom=0;right=0;align=left;spacingLeft=6;overflow=hidden;whiteSpace=wrap;html=1;" parent="DOXmJgNx25OAnM6Lbmhb-26" vertex="1">
          <mxGeometry x="30" y="150" width="190" height="30" as="geometry">
            <mxRectangle width="149.99999999999994" height="30" as="alternateBounds" />
          </mxGeometry>
        </mxCell>
        <mxCell id="DOXmJgNx25OAnM6Lbmhb-46" value="" style="group" parent="1" vertex="1" connectable="0">
          <mxGeometry x="90" y="510" width="180" height="220" as="geometry" />
        </mxCell>
        <mxCell id="DOXmJgNx25OAnM6Lbmhb-42" value="" style="endArrow=none;html=1;rounded=0;" parent="DOXmJgNx25OAnM6Lbmhb-46" edge="1">
          <mxGeometry width="50" height="50" relative="1" as="geometry">
            <mxPoint x="30" y="220" as="sourcePoint" />
            <mxPoint x="30" y="150" as="targetPoint" />
          </mxGeometry>
        </mxCell>
        <mxCell id="DOXmJgNx25OAnM6Lbmhb-45" value="" style="group" parent="DOXmJgNx25OAnM6Lbmhb-46" vertex="1" connectable="0">
          <mxGeometry width="180" height="220" as="geometry" />
        </mxCell>
        <mxCell id="DOXmJgNx25OAnM6Lbmhb-43" value="ContactNumber" style="shape=partialRectangle;connectable=0;fillColor=none;top=0;left=0;bottom=0;right=0;align=left;spacingLeft=6;overflow=hidden;whiteSpace=wrap;html=1;" parent="DOXmJgNx25OAnM6Lbmhb-45" vertex="1">
          <mxGeometry x="30" y="150" width="150" height="30" as="geometry">
            <mxRectangle width="150" height="30" as="alternateBounds" />
          </mxGeometry>
        </mxCell>
        <mxCell id="DOXmJgNx25OAnM6Lbmhb-44" value="UserID" style="shape=partialRectangle;connectable=0;fillColor=none;top=0;left=0;bottom=0;right=0;align=left;spacingLeft=6;overflow=hidden;whiteSpace=wrap;html=1;" parent="DOXmJgNx25OAnM6Lbmhb-45" vertex="1">
          <mxGeometry x="30" y="180" width="150" height="30" as="geometry">
            <mxRectangle width="150" height="30" as="alternateBounds" />
          </mxGeometry>
        </mxCell>
        <mxCell id="DOXmJgNx25OAnM6Lbmhb-48" value="" style="group" parent="DOXmJgNx25OAnM6Lbmhb-45" vertex="1" connectable="0">
          <mxGeometry x="-15" width="195" height="220" as="geometry" />
        </mxCell>
        <mxCell id="DOXmJgNx25OAnM6Lbmhb-29" value="Business" style="shape=table;startSize=30;container=1;collapsible=1;childLayout=tableLayout;fixedRows=1;rowLines=0;fontStyle=1;align=center;resizeLast=1;html=1;" parent="DOXmJgNx25OAnM6Lbmhb-48" vertex="1">
          <mxGeometry x="15" width="180" height="220" as="geometry">
            <mxRectangle x="15" width="90" height="30" as="alternateBounds" />
          </mxGeometry>
        </mxCell>
        <mxCell id="DOXmJgNx25OAnM6Lbmhb-30" value="" style="shape=tableRow;horizontal=0;startSize=0;swimlaneHead=0;swimlaneBody=0;fillColor=none;collapsible=0;dropTarget=0;points=[[0,0.5],[1,0.5]];portConstraint=eastwest;top=0;left=0;right=0;bottom=1;" parent="DOXmJgNx25OAnM6Lbmhb-29" vertex="1">
          <mxGeometry y="30" width="180" height="30" as="geometry" />
        </mxCell>
        <mxCell id="DOXmJgNx25OAnM6Lbmhb-31" value="PK" style="shape=partialRectangle;connectable=0;fillColor=none;top=0;left=0;bottom=0;right=0;fontStyle=1;overflow=hidden;whiteSpace=wrap;html=1;" parent="DOXmJgNx25OAnM6Lbmhb-30" vertex="1">
          <mxGeometry width="30" height="30" as="geometry">
            <mxRectangle width="30" height="30" as="alternateBounds" />
          </mxGeometry>
        </mxCell>
        <mxCell id="DOXmJgNx25OAnM6Lbmhb-32" value="BusinessID" style="shape=partialRectangle;connectable=0;fillColor=none;top=0;left=0;bottom=0;right=0;align=left;spacingLeft=6;fontStyle=5;overflow=hidden;whiteSpace=wrap;html=1;" parent="DOXmJgNx25OAnM6Lbmhb-30" vertex="1">
          <mxGeometry x="30" width="150" height="30" as="geometry">
            <mxRectangle width="150" height="30" as="alternateBounds" />
          </mxGeometry>
        </mxCell>
        <mxCell id="DOXmJgNx25OAnM6Lbmhb-33" value="" style="shape=tableRow;horizontal=0;startSize=0;swimlaneHead=0;swimlaneBody=0;fillColor=none;collapsible=0;dropTarget=0;points=[[0,0.5],[1,0.5]];portConstraint=eastwest;top=0;left=0;right=0;bottom=0;" parent="DOXmJgNx25OAnM6Lbmhb-29" vertex="1">
          <mxGeometry y="60" width="180" height="30" as="geometry" />
        </mxCell>
        <mxCell id="DOXmJgNx25OAnM6Lbmhb-34" value="" style="shape=partialRectangle;connectable=0;fillColor=none;top=0;left=0;bottom=0;right=0;editable=1;overflow=hidden;whiteSpace=wrap;html=1;" parent="DOXmJgNx25OAnM6Lbmhb-33" vertex="1">
          <mxGeometry width="30" height="30" as="geometry">
            <mxRectangle width="30" height="30" as="alternateBounds" />
          </mxGeometry>
        </mxCell>
        <mxCell id="DOXmJgNx25OAnM6Lbmhb-35" value="BusinessName" style="shape=partialRectangle;connectable=0;fillColor=none;top=0;left=0;bottom=0;right=0;align=left;spacingLeft=6;overflow=hidden;whiteSpace=wrap;html=1;" parent="DOXmJgNx25OAnM6Lbmhb-33" vertex="1">
          <mxGeometry x="30" width="150" height="30" as="geometry">
            <mxRectangle width="150" height="30" as="alternateBounds" />
          </mxGeometry>
        </mxCell>
        <mxCell id="DOXmJgNx25OAnM6Lbmhb-36" value="" style="shape=tableRow;horizontal=0;startSize=0;swimlaneHead=0;swimlaneBody=0;fillColor=none;collapsible=0;dropTarget=0;points=[[0,0.5],[1,0.5]];portConstraint=eastwest;top=0;left=0;right=0;bottom=0;" parent="DOXmJgNx25OAnM6Lbmhb-29" vertex="1">
          <mxGeometry y="90" width="180" height="30" as="geometry" />
        </mxCell>
        <mxCell id="DOXmJgNx25OAnM6Lbmhb-37" value="" style="shape=partialRectangle;connectable=0;fillColor=none;top=0;left=0;bottom=0;right=0;editable=1;overflow=hidden;whiteSpace=wrap;html=1;" parent="DOXmJgNx25OAnM6Lbmhb-36" vertex="1">
          <mxGeometry width="30" height="30" as="geometry">
            <mxRectangle width="30" height="30" as="alternateBounds" />
          </mxGeometry>
        </mxCell>
        <mxCell id="DOXmJgNx25OAnM6Lbmhb-38" value="OwnerName" style="shape=partialRectangle;connectable=0;fillColor=none;top=0;left=0;bottom=0;right=0;align=left;spacingLeft=6;overflow=hidden;whiteSpace=wrap;html=1;" parent="DOXmJgNx25OAnM6Lbmhb-36" vertex="1">
          <mxGeometry x="30" width="150" height="30" as="geometry">
            <mxRectangle width="150" height="30" as="alternateBounds" />
          </mxGeometry>
        </mxCell>
        <mxCell id="DOXmJgNx25OAnM6Lbmhb-39" value="" style="shape=tableRow;horizontal=0;startSize=0;swimlaneHead=0;swimlaneBody=0;fillColor=none;collapsible=0;dropTarget=0;points=[[0,0.5],[1,0.5]];portConstraint=eastwest;top=0;left=0;right=0;bottom=0;" parent="DOXmJgNx25OAnM6Lbmhb-29" vertex="1">
          <mxGeometry y="120" width="180" height="30" as="geometry" />
        </mxCell>
        <mxCell id="DOXmJgNx25OAnM6Lbmhb-40" value="" style="shape=partialRectangle;connectable=0;fillColor=none;top=0;left=0;bottom=0;right=0;editable=1;overflow=hidden;whiteSpace=wrap;html=1;" parent="DOXmJgNx25OAnM6Lbmhb-39" vertex="1">
          <mxGeometry width="30" height="30" as="geometry">
            <mxRectangle width="30" height="30" as="alternateBounds" />
          </mxGeometry>
        </mxCell>
        <mxCell id="DOXmJgNx25OAnM6Lbmhb-41" value="Address" style="shape=partialRectangle;connectable=0;fillColor=none;top=0;left=0;bottom=0;right=0;align=left;spacingLeft=6;overflow=hidden;whiteSpace=wrap;html=1;" parent="DOXmJgNx25OAnM6Lbmhb-39" vertex="1">
          <mxGeometry x="30" width="150" height="30" as="geometry">
            <mxRectangle width="150" height="30" as="alternateBounds" />
          </mxGeometry>
        </mxCell>
        <mxCell id="DOXmJgNx25OAnM6Lbmhb-47" value="&amp;nbsp; &amp;nbsp;FK" style="text;html=1;align=center;verticalAlign=middle;resizable=0;points=[];autosize=1;strokeColor=none;fillColor=none;" parent="DOXmJgNx25OAnM6Lbmhb-48" vertex="1">
          <mxGeometry y="180" width="50" height="30" as="geometry" />
        </mxCell>
        <mxCell id="DOXmJgNx25OAnM6Lbmhb-191" style="edgeStyle=orthogonalEdgeStyle;rounded=0;orthogonalLoop=1;jettySize=auto;html=1;startArrow=ERone;startFill=0;endArrow=ERmany;endFill=0;" parent="DOXmJgNx25OAnM6Lbmhb-48" source="DOXmJgNx25OAnM6Lbmhb-30" edge="1">
          <mxGeometry relative="1" as="geometry">
            <mxPoint x="5" y="-260" as="targetPoint" />
            <Array as="points">
              <mxPoint x="-35" y="45" />
              <mxPoint x="-35" y="-260" />
            </Array>
          </mxGeometry>
        </mxCell>
        <mxCell id="cC9gz4I-F6fsXsZ66nNf-110" style="edgeStyle=orthogonalEdgeStyle;rounded=0;orthogonalLoop=1;jettySize=auto;html=1;startArrow=ERone;startFill=0;endArrow=ERmany;endFill=0;" edge="1" parent="DOXmJgNx25OAnM6Lbmhb-48" source="DOXmJgNx25OAnM6Lbmhb-30">
          <mxGeometry relative="1" as="geometry">
            <mxPoint x="25" y="722.7586206896549" as="targetPoint" />
            <Array as="points">
              <mxPoint x="-35" y="45" />
              <mxPoint x="-35" y="723" />
            </Array>
          </mxGeometry>
        </mxCell>
        <mxCell id="DOXmJgNx25OAnM6Lbmhb-66" value="" style="group" parent="1" vertex="1" connectable="0">
          <mxGeometry x="100" y="750" width="180" height="220" as="geometry" />
        </mxCell>
        <mxCell id="DOXmJgNx25OAnM6Lbmhb-62" value="" style="endArrow=none;html=1;rounded=0;" parent="DOXmJgNx25OAnM6Lbmhb-66" edge="1">
          <mxGeometry width="50" height="50" relative="1" as="geometry">
            <mxPoint x="30" y="220" as="sourcePoint" />
            <mxPoint x="30" y="150" as="targetPoint" />
          </mxGeometry>
        </mxCell>
        <mxCell id="DOXmJgNx25OAnM6Lbmhb-65" value="" style="group" parent="DOXmJgNx25OAnM6Lbmhb-66" vertex="1" connectable="0">
          <mxGeometry width="180" height="220" as="geometry" />
        </mxCell>
        <mxCell id="DOXmJgNx25OAnM6Lbmhb-64" value="BusinessID" style="shape=partialRectangle;connectable=0;fillColor=none;top=0;left=0;bottom=0;right=0;align=left;spacingLeft=6;overflow=hidden;whiteSpace=wrap;html=1;" parent="DOXmJgNx25OAnM6Lbmhb-65" vertex="1">
          <mxGeometry x="30" y="180" width="150" height="30" as="geometry">
            <mxRectangle width="150" height="30" as="alternateBounds" />
          </mxGeometry>
        </mxCell>
        <mxCell id="DOXmJgNx25OAnM6Lbmhb-68" value="" style="group" parent="DOXmJgNx25OAnM6Lbmhb-65" vertex="1" connectable="0">
          <mxGeometry x="-15" width="195" height="220" as="geometry" />
        </mxCell>
        <mxCell id="DOXmJgNx25OAnM6Lbmhb-49" value="Product" style="shape=table;startSize=30;container=1;collapsible=1;childLayout=tableLayout;fixedRows=1;rowLines=0;fontStyle=1;align=center;resizeLast=1;html=1;" parent="DOXmJgNx25OAnM6Lbmhb-68" vertex="1">
          <mxGeometry x="15" width="180" height="220" as="geometry" />
        </mxCell>
        <mxCell id="DOXmJgNx25OAnM6Lbmhb-50" value="" style="shape=tableRow;horizontal=0;startSize=0;swimlaneHead=0;swimlaneBody=0;fillColor=none;collapsible=0;dropTarget=0;points=[[0,0.5],[1,0.5]];portConstraint=eastwest;top=0;left=0;right=0;bottom=1;" parent="DOXmJgNx25OAnM6Lbmhb-49" vertex="1">
          <mxGeometry y="30" width="180" height="30" as="geometry" />
        </mxCell>
        <mxCell id="DOXmJgNx25OAnM6Lbmhb-51" value="PK" style="shape=partialRectangle;connectable=0;fillColor=none;top=0;left=0;bottom=0;right=0;fontStyle=1;overflow=hidden;whiteSpace=wrap;html=1;" parent="DOXmJgNx25OAnM6Lbmhb-50" vertex="1">
          <mxGeometry width="30" height="30" as="geometry">
            <mxRectangle width="30" height="30" as="alternateBounds" />
          </mxGeometry>
        </mxCell>
        <mxCell id="DOXmJgNx25OAnM6Lbmhb-52" value="ProductID" style="shape=partialRectangle;connectable=0;fillColor=none;top=0;left=0;bottom=0;right=0;align=left;spacingLeft=6;fontStyle=5;overflow=hidden;whiteSpace=wrap;html=1;" parent="DOXmJgNx25OAnM6Lbmhb-50" vertex="1">
          <mxGeometry x="30" width="150" height="30" as="geometry">
            <mxRectangle width="150" height="30" as="alternateBounds" />
          </mxGeometry>
        </mxCell>
        <mxCell id="DOXmJgNx25OAnM6Lbmhb-53" value="" style="shape=tableRow;horizontal=0;startSize=0;swimlaneHead=0;swimlaneBody=0;fillColor=none;collapsible=0;dropTarget=0;points=[[0,0.5],[1,0.5]];portConstraint=eastwest;top=0;left=0;right=0;bottom=0;" parent="DOXmJgNx25OAnM6Lbmhb-49" vertex="1">
          <mxGeometry y="60" width="180" height="30" as="geometry" />
        </mxCell>
        <mxCell id="DOXmJgNx25OAnM6Lbmhb-54" value="" style="shape=partialRectangle;connectable=0;fillColor=none;top=0;left=0;bottom=0;right=0;editable=1;overflow=hidden;whiteSpace=wrap;html=1;" parent="DOXmJgNx25OAnM6Lbmhb-53" vertex="1">
          <mxGeometry width="30" height="30" as="geometry">
            <mxRectangle width="30" height="30" as="alternateBounds" />
          </mxGeometry>
        </mxCell>
        <mxCell id="DOXmJgNx25OAnM6Lbmhb-55" value="ProductName" style="shape=partialRectangle;connectable=0;fillColor=none;top=0;left=0;bottom=0;right=0;align=left;spacingLeft=6;overflow=hidden;whiteSpace=wrap;html=1;" parent="DOXmJgNx25OAnM6Lbmhb-53" vertex="1">
          <mxGeometry x="30" width="150" height="30" as="geometry">
            <mxRectangle width="150" height="30" as="alternateBounds" />
          </mxGeometry>
        </mxCell>
        <mxCell id="DOXmJgNx25OAnM6Lbmhb-56" value="" style="shape=tableRow;horizontal=0;startSize=0;swimlaneHead=0;swimlaneBody=0;fillColor=none;collapsible=0;dropTarget=0;points=[[0,0.5],[1,0.5]];portConstraint=eastwest;top=0;left=0;right=0;bottom=0;" parent="DOXmJgNx25OAnM6Lbmhb-49" vertex="1">
          <mxGeometry y="90" width="180" height="30" as="geometry" />
        </mxCell>
        <mxCell id="DOXmJgNx25OAnM6Lbmhb-57" value="" style="shape=partialRectangle;connectable=0;fillColor=none;top=0;left=0;bottom=0;right=0;editable=1;overflow=hidden;whiteSpace=wrap;html=1;" parent="DOXmJgNx25OAnM6Lbmhb-56" vertex="1">
          <mxGeometry width="30" height="30" as="geometry">
            <mxRectangle width="30" height="30" as="alternateBounds" />
          </mxGeometry>
        </mxCell>
        <mxCell id="DOXmJgNx25OAnM6Lbmhb-58" value="Description" style="shape=partialRectangle;connectable=0;fillColor=none;top=0;left=0;bottom=0;right=0;align=left;spacingLeft=6;overflow=hidden;whiteSpace=wrap;html=1;" parent="DOXmJgNx25OAnM6Lbmhb-56" vertex="1">
          <mxGeometry x="30" width="150" height="30" as="geometry">
            <mxRectangle width="150" height="30" as="alternateBounds" />
          </mxGeometry>
        </mxCell>
        <mxCell id="DOXmJgNx25OAnM6Lbmhb-59" value="" style="shape=tableRow;horizontal=0;startSize=0;swimlaneHead=0;swimlaneBody=0;fillColor=none;collapsible=0;dropTarget=0;points=[[0,0.5],[1,0.5]];portConstraint=eastwest;top=0;left=0;right=0;bottom=0;" parent="DOXmJgNx25OAnM6Lbmhb-49" vertex="1">
          <mxGeometry y="120" width="180" height="30" as="geometry" />
        </mxCell>
        <mxCell id="DOXmJgNx25OAnM6Lbmhb-60" value="" style="shape=partialRectangle;connectable=0;fillColor=none;top=0;left=0;bottom=0;right=0;editable=1;overflow=hidden;whiteSpace=wrap;html=1;" parent="DOXmJgNx25OAnM6Lbmhb-59" vertex="1">
          <mxGeometry width="30" height="30" as="geometry">
            <mxRectangle width="30" height="30" as="alternateBounds" />
          </mxGeometry>
        </mxCell>
        <mxCell id="DOXmJgNx25OAnM6Lbmhb-61" value="Price" style="shape=partialRectangle;connectable=0;fillColor=none;top=0;left=0;bottom=0;right=0;align=left;spacingLeft=6;overflow=hidden;whiteSpace=wrap;html=1;" parent="DOXmJgNx25OAnM6Lbmhb-59" vertex="1">
          <mxGeometry x="30" width="150" height="30" as="geometry">
            <mxRectangle width="150" height="30" as="alternateBounds" />
          </mxGeometry>
        </mxCell>
        <mxCell id="DOXmJgNx25OAnM6Lbmhb-63" value="StockQuantity" style="shape=partialRectangle;connectable=0;fillColor=none;top=0;left=0;bottom=0;right=0;align=left;spacingLeft=6;overflow=hidden;whiteSpace=wrap;html=1;" parent="DOXmJgNx25OAnM6Lbmhb-68" vertex="1">
          <mxGeometry x="45" y="150" width="150" height="30" as="geometry">
            <mxRectangle width="150" height="30" as="alternateBounds" />
          </mxGeometry>
        </mxCell>
        <mxCell id="DOXmJgNx25OAnM6Lbmhb-67" value="&amp;nbsp; FK" style="text;html=1;align=center;verticalAlign=middle;resizable=0;points=[];autosize=1;strokeColor=none;fillColor=none;" parent="DOXmJgNx25OAnM6Lbmhb-68" vertex="1">
          <mxGeometry y="180" width="50" height="30" as="geometry" />
        </mxCell>
        <mxCell id="DOXmJgNx25OAnM6Lbmhb-186" style="edgeStyle=orthogonalEdgeStyle;rounded=0;orthogonalLoop=1;jettySize=auto;html=1;startArrow=ERone;startFill=0;endArrow=ERmany;endFill=0;" parent="DOXmJgNx25OAnM6Lbmhb-68" source="DOXmJgNx25OAnM6Lbmhb-50" edge="1">
          <mxGeometry relative="1" as="geometry">
            <mxPoint x="305" y="-300" as="targetPoint" />
            <Array as="points">
              <mxPoint x="245" y="45" />
              <mxPoint x="245" y="-300" />
            </Array>
          </mxGeometry>
        </mxCell>
        <mxCell id="DOXmJgNx25OAnM6Lbmhb-84" value="" style="group" parent="1" vertex="1" connectable="0">
          <mxGeometry x="380" y="490" width="180" height="180" as="geometry" />
        </mxCell>
        <mxCell id="DOXmJgNx25OAnM6Lbmhb-69" value="Order" style="shape=table;startSize=30;container=1;collapsible=1;childLayout=tableLayout;fixedRows=1;rowLines=0;fontStyle=1;align=center;resizeLast=1;html=1;" parent="DOXmJgNx25OAnM6Lbmhb-84" vertex="1">
          <mxGeometry width="180" height="180" as="geometry" />
        </mxCell>
        <mxCell id="DOXmJgNx25OAnM6Lbmhb-70" value="" style="shape=tableRow;horizontal=0;startSize=0;swimlaneHead=0;swimlaneBody=0;fillColor=none;collapsible=0;dropTarget=0;points=[[0,0.5],[1,0.5]];portConstraint=eastwest;top=0;left=0;right=0;bottom=1;" parent="DOXmJgNx25OAnM6Lbmhb-69" vertex="1">
          <mxGeometry y="30" width="180" height="30" as="geometry" />
        </mxCell>
        <mxCell id="DOXmJgNx25OAnM6Lbmhb-71" value="PK" style="shape=partialRectangle;connectable=0;fillColor=none;top=0;left=0;bottom=0;right=0;fontStyle=1;overflow=hidden;whiteSpace=wrap;html=1;" parent="DOXmJgNx25OAnM6Lbmhb-70" vertex="1">
          <mxGeometry width="30" height="30" as="geometry">
            <mxRectangle width="30" height="30" as="alternateBounds" />
          </mxGeometry>
        </mxCell>
        <mxCell id="DOXmJgNx25OAnM6Lbmhb-72" value="OrderID" style="shape=partialRectangle;connectable=0;fillColor=none;top=0;left=0;bottom=0;right=0;align=left;spacingLeft=6;fontStyle=5;overflow=hidden;whiteSpace=wrap;html=1;" parent="DOXmJgNx25OAnM6Lbmhb-70" vertex="1">
          <mxGeometry x="30" width="150" height="30" as="geometry">
            <mxRectangle width="150" height="30" as="alternateBounds" />
          </mxGeometry>
        </mxCell>
        <mxCell id="DOXmJgNx25OAnM6Lbmhb-73" value="" style="shape=tableRow;horizontal=0;startSize=0;swimlaneHead=0;swimlaneBody=0;fillColor=none;collapsible=0;dropTarget=0;points=[[0,0.5],[1,0.5]];portConstraint=eastwest;top=0;left=0;right=0;bottom=0;" parent="DOXmJgNx25OAnM6Lbmhb-69" vertex="1">
          <mxGeometry y="60" width="180" height="30" as="geometry" />
        </mxCell>
        <mxCell id="DOXmJgNx25OAnM6Lbmhb-74" value="" style="shape=partialRectangle;connectable=0;fillColor=none;top=0;left=0;bottom=0;right=0;editable=1;overflow=hidden;whiteSpace=wrap;html=1;" parent="DOXmJgNx25OAnM6Lbmhb-73" vertex="1">
          <mxGeometry width="30" height="30" as="geometry">
            <mxRectangle width="30" height="30" as="alternateBounds" />
          </mxGeometry>
        </mxCell>
        <mxCell id="DOXmJgNx25OAnM6Lbmhb-75" value="OrderDate" style="shape=partialRectangle;connectable=0;fillColor=none;top=0;left=0;bottom=0;right=0;align=left;spacingLeft=6;overflow=hidden;whiteSpace=wrap;html=1;" parent="DOXmJgNx25OAnM6Lbmhb-73" vertex="1">
          <mxGeometry x="30" width="150" height="30" as="geometry">
            <mxRectangle width="150" height="30" as="alternateBounds" />
          </mxGeometry>
        </mxCell>
        <mxCell id="DOXmJgNx25OAnM6Lbmhb-76" value="" style="shape=tableRow;horizontal=0;startSize=0;swimlaneHead=0;swimlaneBody=0;fillColor=none;collapsible=0;dropTarget=0;points=[[0,0.5],[1,0.5]];portConstraint=eastwest;top=0;left=0;right=0;bottom=0;" parent="DOXmJgNx25OAnM6Lbmhb-69" vertex="1">
          <mxGeometry y="90" width="180" height="30" as="geometry" />
        </mxCell>
        <mxCell id="DOXmJgNx25OAnM6Lbmhb-77" value="" style="shape=partialRectangle;connectable=0;fillColor=none;top=0;left=0;bottom=0;right=0;editable=1;overflow=hidden;whiteSpace=wrap;html=1;" parent="DOXmJgNx25OAnM6Lbmhb-76" vertex="1">
          <mxGeometry width="30" height="30" as="geometry">
            <mxRectangle width="30" height="30" as="alternateBounds" />
          </mxGeometry>
        </mxCell>
        <mxCell id="DOXmJgNx25OAnM6Lbmhb-78" value="Status" style="shape=partialRectangle;connectable=0;fillColor=none;top=0;left=0;bottom=0;right=0;align=left;spacingLeft=6;overflow=hidden;whiteSpace=wrap;html=1;" parent="DOXmJgNx25OAnM6Lbmhb-76" vertex="1">
          <mxGeometry x="30" width="150" height="30" as="geometry">
            <mxRectangle width="150" height="30" as="alternateBounds" />
          </mxGeometry>
        </mxCell>
        <mxCell id="DOXmJgNx25OAnM6Lbmhb-79" value="" style="shape=tableRow;horizontal=0;startSize=0;swimlaneHead=0;swimlaneBody=0;fillColor=none;collapsible=0;dropTarget=0;points=[[0,0.5],[1,0.5]];portConstraint=eastwest;top=0;left=0;right=0;bottom=0;" parent="DOXmJgNx25OAnM6Lbmhb-69" vertex="1">
          <mxGeometry y="120" width="180" height="30" as="geometry" />
        </mxCell>
        <mxCell id="DOXmJgNx25OAnM6Lbmhb-80" value="" style="shape=partialRectangle;connectable=0;fillColor=none;top=0;left=0;bottom=0;right=0;editable=1;overflow=hidden;whiteSpace=wrap;html=1;" parent="DOXmJgNx25OAnM6Lbmhb-79" vertex="1">
          <mxGeometry width="30" height="30" as="geometry">
            <mxRectangle width="30" height="30" as="alternateBounds" />
          </mxGeometry>
        </mxCell>
        <mxCell id="DOXmJgNx25OAnM6Lbmhb-81" value="TotalPrice" style="shape=partialRectangle;connectable=0;fillColor=none;top=0;left=0;bottom=0;right=0;align=left;spacingLeft=6;overflow=hidden;whiteSpace=wrap;html=1;" parent="DOXmJgNx25OAnM6Lbmhb-79" vertex="1">
          <mxGeometry x="30" width="150" height="30" as="geometry">
            <mxRectangle width="150" height="30" as="alternateBounds" />
          </mxGeometry>
        </mxCell>
        <mxCell id="DOXmJgNx25OAnM6Lbmhb-82" value="UserID" style="shape=partialRectangle;connectable=0;fillColor=none;top=0;left=0;bottom=0;right=0;align=left;spacingLeft=6;overflow=hidden;whiteSpace=wrap;html=1;" parent="DOXmJgNx25OAnM6Lbmhb-84" vertex="1">
          <mxGeometry x="30" y="150" width="150" height="30" as="geometry">
            <mxRectangle width="150" height="30" as="alternateBounds" />
          </mxGeometry>
        </mxCell>
        <mxCell id="DOXmJgNx25OAnM6Lbmhb-83" value="" style="endArrow=none;html=1;rounded=0;" parent="DOXmJgNx25OAnM6Lbmhb-84" edge="1">
          <mxGeometry width="50" height="50" relative="1" as="geometry">
            <mxPoint x="30" y="180" as="sourcePoint" />
            <mxPoint x="30" y="150" as="targetPoint" />
          </mxGeometry>
        </mxCell>
        <mxCell id="DOXmJgNx25OAnM6Lbmhb-85" value="&amp;nbsp; &amp;nbsp;FK" style="text;html=1;align=center;verticalAlign=middle;resizable=0;points=[];autosize=1;strokeColor=none;fillColor=none;" parent="DOXmJgNx25OAnM6Lbmhb-84" vertex="1">
          <mxGeometry x="-15" y="150" width="50" height="30" as="geometry" />
        </mxCell>
        <mxCell id="DOXmJgNx25OAnM6Lbmhb-189" style="edgeStyle=orthogonalEdgeStyle;rounded=0;orthogonalLoop=1;jettySize=auto;html=1;startArrow=ERone;startFill=0;endArrow=ERone;endFill=0;" parent="DOXmJgNx25OAnM6Lbmhb-84" source="DOXmJgNx25OAnM6Lbmhb-70" edge="1">
          <mxGeometry relative="1" as="geometry">
            <mxPoint x="240" y="-40" as="targetPoint" />
            <Array as="points">
              <mxPoint x="220" y="45" />
              <mxPoint x="220" y="-40" />
            </Array>
          </mxGeometry>
        </mxCell>
        <mxCell id="DOXmJgNx25OAnM6Lbmhb-86" value="CartItem" style="shape=table;startSize=30;container=1;collapsible=1;childLayout=tableLayout;fixedRows=1;rowLines=0;fontStyle=1;align=center;resizeLast=1;html=1;" parent="1" vertex="1">
          <mxGeometry x="380" y="685" width="180" height="150" as="geometry" />
        </mxCell>
        <mxCell id="DOXmJgNx25OAnM6Lbmhb-87" value="" style="shape=tableRow;horizontal=0;startSize=0;swimlaneHead=0;swimlaneBody=0;fillColor=none;collapsible=0;dropTarget=0;points=[[0,0.5],[1,0.5]];portConstraint=eastwest;top=0;left=0;right=0;bottom=1;" parent="DOXmJgNx25OAnM6Lbmhb-86" vertex="1">
          <mxGeometry y="30" width="180" height="30" as="geometry" />
        </mxCell>
        <mxCell id="DOXmJgNx25OAnM6Lbmhb-88" value="PK" style="shape=partialRectangle;connectable=0;fillColor=none;top=0;left=0;bottom=0;right=0;fontStyle=1;overflow=hidden;whiteSpace=wrap;html=1;" parent="DOXmJgNx25OAnM6Lbmhb-87" vertex="1">
          <mxGeometry width="30" height="30" as="geometry">
            <mxRectangle width="30" height="30" as="alternateBounds" />
          </mxGeometry>
        </mxCell>
        <mxCell id="DOXmJgNx25OAnM6Lbmhb-89" value="CartItemID" style="shape=partialRectangle;connectable=0;fillColor=none;top=0;left=0;bottom=0;right=0;align=left;spacingLeft=6;fontStyle=5;overflow=hidden;whiteSpace=wrap;html=1;" parent="DOXmJgNx25OAnM6Lbmhb-87" vertex="1">
          <mxGeometry x="30" width="150" height="30" as="geometry">
            <mxRectangle width="150" height="30" as="alternateBounds" />
          </mxGeometry>
        </mxCell>
        <mxCell id="DOXmJgNx25OAnM6Lbmhb-90" value="" style="shape=tableRow;horizontal=0;startSize=0;swimlaneHead=0;swimlaneBody=0;fillColor=none;collapsible=0;dropTarget=0;points=[[0,0.5],[1,0.5]];portConstraint=eastwest;top=0;left=0;right=0;bottom=0;" parent="DOXmJgNx25OAnM6Lbmhb-86" vertex="1">
          <mxGeometry y="60" width="180" height="30" as="geometry" />
        </mxCell>
        <mxCell id="DOXmJgNx25OAnM6Lbmhb-91" value="" style="shape=partialRectangle;connectable=0;fillColor=none;top=0;left=0;bottom=0;right=0;editable=1;overflow=hidden;whiteSpace=wrap;html=1;" parent="DOXmJgNx25OAnM6Lbmhb-90" vertex="1">
          <mxGeometry width="30" height="30" as="geometry">
            <mxRectangle width="30" height="30" as="alternateBounds" />
          </mxGeometry>
        </mxCell>
        <mxCell id="DOXmJgNx25OAnM6Lbmhb-92" value="Quantity" style="shape=partialRectangle;connectable=0;fillColor=none;top=0;left=0;bottom=0;right=0;align=left;spacingLeft=6;overflow=hidden;whiteSpace=wrap;html=1;" parent="DOXmJgNx25OAnM6Lbmhb-90" vertex="1">
          <mxGeometry x="30" width="150" height="30" as="geometry">
            <mxRectangle width="150" height="30" as="alternateBounds" />
          </mxGeometry>
        </mxCell>
        <mxCell id="DOXmJgNx25OAnM6Lbmhb-93" value="" style="shape=tableRow;horizontal=0;startSize=0;swimlaneHead=0;swimlaneBody=0;fillColor=none;collapsible=0;dropTarget=0;points=[[0,0.5],[1,0.5]];portConstraint=eastwest;top=0;left=0;right=0;bottom=0;" parent="DOXmJgNx25OAnM6Lbmhb-86" vertex="1">
          <mxGeometry y="90" width="180" height="30" as="geometry" />
        </mxCell>
        <mxCell id="DOXmJgNx25OAnM6Lbmhb-94" value="FK" style="shape=partialRectangle;connectable=0;fillColor=none;top=0;left=0;bottom=0;right=0;editable=1;overflow=hidden;whiteSpace=wrap;html=1;" parent="DOXmJgNx25OAnM6Lbmhb-93" vertex="1">
          <mxGeometry width="30" height="30" as="geometry">
            <mxRectangle width="30" height="30" as="alternateBounds" />
          </mxGeometry>
        </mxCell>
        <mxCell id="DOXmJgNx25OAnM6Lbmhb-95" value="ProductID" style="shape=partialRectangle;connectable=0;fillColor=none;top=0;left=0;bottom=0;right=0;align=left;spacingLeft=6;overflow=hidden;whiteSpace=wrap;html=1;" parent="DOXmJgNx25OAnM6Lbmhb-93" vertex="1">
          <mxGeometry x="30" width="150" height="30" as="geometry">
            <mxRectangle width="150" height="30" as="alternateBounds" />
          </mxGeometry>
        </mxCell>
        <mxCell id="DOXmJgNx25OAnM6Lbmhb-96" value="" style="shape=tableRow;horizontal=0;startSize=0;swimlaneHead=0;swimlaneBody=0;fillColor=none;collapsible=0;dropTarget=0;points=[[0,0.5],[1,0.5]];portConstraint=eastwest;top=0;left=0;right=0;bottom=0;" parent="DOXmJgNx25OAnM6Lbmhb-86" vertex="1">
          <mxGeometry y="120" width="180" height="30" as="geometry" />
        </mxCell>
        <mxCell id="DOXmJgNx25OAnM6Lbmhb-97" value="FK" style="shape=partialRectangle;connectable=0;fillColor=none;top=0;left=0;bottom=0;right=0;editable=1;overflow=hidden;whiteSpace=wrap;html=1;" parent="DOXmJgNx25OAnM6Lbmhb-96" vertex="1">
          <mxGeometry width="30" height="30" as="geometry">
            <mxRectangle width="30" height="30" as="alternateBounds" />
          </mxGeometry>
        </mxCell>
        <mxCell id="DOXmJgNx25OAnM6Lbmhb-98" value="UserID" style="shape=partialRectangle;connectable=0;fillColor=none;top=0;left=0;bottom=0;right=0;align=left;spacingLeft=6;overflow=hidden;whiteSpace=wrap;html=1;" parent="DOXmJgNx25OAnM6Lbmhb-96" vertex="1">
          <mxGeometry x="30" width="150" height="30" as="geometry">
            <mxRectangle width="150" height="30" as="alternateBounds" />
          </mxGeometry>
        </mxCell>
        <mxCell id="DOXmJgNx25OAnM6Lbmhb-112" value="" style="shape=tableRow;horizontal=0;startSize=0;swimlaneHead=0;swimlaneBody=0;fillColor=none;collapsible=0;dropTarget=0;points=[[0,0.5],[1,0.5]];portConstraint=eastwest;top=0;left=0;right=0;bottom=0;" parent="1" vertex="1">
          <mxGeometry x="100" y="820" width="180" height="30" as="geometry" />
        </mxCell>
        <mxCell id="DOXmJgNx25OAnM6Lbmhb-117" value="" style="group" parent="1" vertex="1" connectable="0">
          <mxGeometry x="390" y="285" width="180" height="180" as="geometry" />
        </mxCell>
        <mxCell id="DOXmJgNx25OAnM6Lbmhb-99" value="Review" style="shape=table;startSize=30;container=1;collapsible=1;childLayout=tableLayout;fixedRows=1;rowLines=0;fontStyle=0;align=center;resizeLast=1;html=1;" parent="DOXmJgNx25OAnM6Lbmhb-117" vertex="1">
          <mxGeometry width="180" height="180" as="geometry">
            <mxRectangle width="80" height="30" as="alternateBounds" />
          </mxGeometry>
        </mxCell>
        <mxCell id="DOXmJgNx25OAnM6Lbmhb-100" value="" style="shape=tableRow;horizontal=0;startSize=0;swimlaneHead=0;swimlaneBody=0;fillColor=none;collapsible=0;dropTarget=0;points=[[0,0.5],[1,0.5]];portConstraint=eastwest;top=0;left=0;right=0;bottom=1;" parent="DOXmJgNx25OAnM6Lbmhb-99" vertex="1">
          <mxGeometry y="30" width="180" height="30" as="geometry" />
        </mxCell>
        <mxCell id="DOXmJgNx25OAnM6Lbmhb-101" value="PK" style="shape=partialRectangle;connectable=0;fillColor=none;top=0;left=0;bottom=0;right=0;fontStyle=1;overflow=hidden;whiteSpace=wrap;html=1;" parent="DOXmJgNx25OAnM6Lbmhb-100" vertex="1">
          <mxGeometry width="30" height="30" as="geometry">
            <mxRectangle width="30" height="30" as="alternateBounds" />
          </mxGeometry>
        </mxCell>
        <mxCell id="DOXmJgNx25OAnM6Lbmhb-102" value="ReviewID" style="shape=partialRectangle;connectable=0;fillColor=none;top=0;left=0;bottom=0;right=0;align=left;spacingLeft=6;fontStyle=5;overflow=hidden;whiteSpace=wrap;html=1;" parent="DOXmJgNx25OAnM6Lbmhb-100" vertex="1">
          <mxGeometry x="30" width="150" height="30" as="geometry">
            <mxRectangle width="150" height="30" as="alternateBounds" />
          </mxGeometry>
        </mxCell>
        <mxCell id="DOXmJgNx25OAnM6Lbmhb-103" value="" style="shape=tableRow;horizontal=0;startSize=0;swimlaneHead=0;swimlaneBody=0;fillColor=none;collapsible=0;dropTarget=0;points=[[0,0.5],[1,0.5]];portConstraint=eastwest;top=0;left=0;right=0;bottom=0;" parent="DOXmJgNx25OAnM6Lbmhb-99" vertex="1">
          <mxGeometry y="60" width="180" height="30" as="geometry" />
        </mxCell>
        <mxCell id="DOXmJgNx25OAnM6Lbmhb-104" value="" style="shape=partialRectangle;connectable=0;fillColor=none;top=0;left=0;bottom=0;right=0;editable=1;overflow=hidden;whiteSpace=wrap;html=1;" parent="DOXmJgNx25OAnM6Lbmhb-103" vertex="1">
          <mxGeometry width="30" height="30" as="geometry">
            <mxRectangle width="30" height="30" as="alternateBounds" />
          </mxGeometry>
        </mxCell>
        <mxCell id="DOXmJgNx25OAnM6Lbmhb-105" value="Rating" style="shape=partialRectangle;connectable=0;fillColor=none;top=0;left=0;bottom=0;right=0;align=left;spacingLeft=6;overflow=hidden;whiteSpace=wrap;html=1;" parent="DOXmJgNx25OAnM6Lbmhb-103" vertex="1">
          <mxGeometry x="30" width="150" height="30" as="geometry">
            <mxRectangle width="150" height="30" as="alternateBounds" />
          </mxGeometry>
        </mxCell>
        <mxCell id="DOXmJgNx25OAnM6Lbmhb-106" value="" style="shape=tableRow;horizontal=0;startSize=0;swimlaneHead=0;swimlaneBody=0;fillColor=none;collapsible=0;dropTarget=0;points=[[0,0.5],[1,0.5]];portConstraint=eastwest;top=0;left=0;right=0;bottom=0;" parent="DOXmJgNx25OAnM6Lbmhb-99" vertex="1">
          <mxGeometry y="90" width="180" height="30" as="geometry" />
        </mxCell>
        <mxCell id="DOXmJgNx25OAnM6Lbmhb-107" value="" style="shape=partialRectangle;connectable=0;fillColor=none;top=0;left=0;bottom=0;right=0;editable=1;overflow=hidden;whiteSpace=wrap;html=1;" parent="DOXmJgNx25OAnM6Lbmhb-106" vertex="1">
          <mxGeometry width="30" height="30" as="geometry">
            <mxRectangle width="30" height="30" as="alternateBounds" />
          </mxGeometry>
        </mxCell>
        <mxCell id="DOXmJgNx25OAnM6Lbmhb-108" value="Comment" style="shape=partialRectangle;connectable=0;fillColor=none;top=0;left=0;bottom=0;right=0;align=left;spacingLeft=6;overflow=hidden;whiteSpace=wrap;html=1;" parent="DOXmJgNx25OAnM6Lbmhb-106" vertex="1">
          <mxGeometry x="30" width="150" height="30" as="geometry">
            <mxRectangle width="150" height="30" as="alternateBounds" />
          </mxGeometry>
        </mxCell>
        <mxCell id="DOXmJgNx25OAnM6Lbmhb-109" value="" style="shape=tableRow;horizontal=0;startSize=0;swimlaneHead=0;swimlaneBody=0;fillColor=none;collapsible=0;dropTarget=0;points=[[0,0.5],[1,0.5]];portConstraint=eastwest;top=0;left=0;right=0;bottom=0;" parent="DOXmJgNx25OAnM6Lbmhb-99" vertex="1">
          <mxGeometry y="120" width="180" height="30" as="geometry" />
        </mxCell>
        <mxCell id="DOXmJgNx25OAnM6Lbmhb-110" value="FK" style="shape=partialRectangle;connectable=0;fillColor=none;top=0;left=0;bottom=0;right=0;editable=1;overflow=hidden;whiteSpace=wrap;html=1;" parent="DOXmJgNx25OAnM6Lbmhb-109" vertex="1">
          <mxGeometry width="30" height="30" as="geometry">
            <mxRectangle width="30" height="30" as="alternateBounds" />
          </mxGeometry>
        </mxCell>
        <mxCell id="DOXmJgNx25OAnM6Lbmhb-111" value="UserID" style="shape=partialRectangle;connectable=0;fillColor=none;top=0;left=0;bottom=0;right=0;align=left;spacingLeft=6;overflow=hidden;whiteSpace=wrap;html=1;" parent="DOXmJgNx25OAnM6Lbmhb-109" vertex="1">
          <mxGeometry x="30" width="150" height="30" as="geometry">
            <mxRectangle width="150" height="30" as="alternateBounds" />
          </mxGeometry>
        </mxCell>
        <mxCell id="DOXmJgNx25OAnM6Lbmhb-173" value="" style="group" parent="DOXmJgNx25OAnM6Lbmhb-117" vertex="1" connectable="0">
          <mxGeometry y="150" width="180" height="30" as="geometry" />
        </mxCell>
        <mxCell id="DOXmJgNx25OAnM6Lbmhb-113" value="FK" style="shape=partialRectangle;connectable=0;fillColor=none;top=0;left=0;bottom=0;right=0;editable=1;overflow=hidden;whiteSpace=wrap;html=1;" parent="DOXmJgNx25OAnM6Lbmhb-173" vertex="1">
          <mxGeometry width="30" height="30" as="geometry">
            <mxRectangle width="30" height="30" as="alternateBounds" />
          </mxGeometry>
        </mxCell>
        <mxCell id="DOXmJgNx25OAnM6Lbmhb-114" value="ProductID" style="shape=partialRectangle;connectable=0;fillColor=none;top=0;left=0;bottom=0;right=0;align=left;spacingLeft=6;overflow=hidden;whiteSpace=wrap;html=1;" parent="DOXmJgNx25OAnM6Lbmhb-173" vertex="1">
          <mxGeometry x="30" width="150" height="30" as="geometry">
            <mxRectangle width="150" height="30" as="alternateBounds" />
          </mxGeometry>
        </mxCell>
        <mxCell id="DOXmJgNx25OAnM6Lbmhb-115" value="" style="endArrow=none;html=1;rounded=0;exitX=0.171;exitY=0.996;exitDx=0;exitDy=0;exitPerimeter=0;entryX=0.167;entryY=-0.004;entryDx=0;entryDy=0;entryPerimeter=0;" parent="DOXmJgNx25OAnM6Lbmhb-173" edge="1">
          <mxGeometry width="50" height="50" relative="1" as="geometry">
            <mxPoint x="30.72000000000003" y="29.999999999999886" as="sourcePoint" />
            <mxPoint x="30.000000000000004" y="-1.1368683772161603e-13" as="targetPoint" />
          </mxGeometry>
        </mxCell>
        <mxCell id="DOXmJgNx25OAnM6Lbmhb-179" value="" style="group" parent="1" vertex="1" connectable="0">
          <mxGeometry x="80" y="60" width="180" height="210" as="geometry" />
        </mxCell>
        <mxCell id="DOXmJgNx25OAnM6Lbmhb-165" value="" style="shape=tableRow;horizontal=0;startSize=0;swimlaneHead=0;swimlaneBody=0;fillColor=none;collapsible=0;dropTarget=0;points=[[0,0.5],[1,0.5]];portConstraint=eastwest;top=0;left=0;right=0;bottom=0;" parent="DOXmJgNx25OAnM6Lbmhb-179" vertex="1">
          <mxGeometry y="150" width="180" height="30" as="geometry" />
        </mxCell>
        <mxCell id="DOXmJgNx25OAnM6Lbmhb-166" value="FK" style="shape=partialRectangle;connectable=0;fillColor=none;top=0;left=0;bottom=0;right=0;editable=1;overflow=hidden;whiteSpace=wrap;html=1;" parent="DOXmJgNx25OAnM6Lbmhb-165" vertex="1">
          <mxGeometry width="30" height="30" as="geometry">
            <mxRectangle width="30" height="30" as="alternateBounds" />
          </mxGeometry>
        </mxCell>
        <mxCell id="DOXmJgNx25OAnM6Lbmhb-167" value="UserID" style="shape=partialRectangle;connectable=0;fillColor=none;top=0;left=0;bottom=0;right=0;align=left;spacingLeft=6;overflow=hidden;whiteSpace=wrap;html=1;" parent="DOXmJgNx25OAnM6Lbmhb-165" vertex="1">
          <mxGeometry x="30" width="150" height="30" as="geometry">
            <mxRectangle width="150" height="30" as="alternateBounds" />
          </mxGeometry>
        </mxCell>
        <mxCell id="DOXmJgNx25OAnM6Lbmhb-168" value="" style="shape=tableRow;horizontal=0;startSize=0;swimlaneHead=0;swimlaneBody=0;fillColor=none;collapsible=0;dropTarget=0;points=[[0,0.5],[1,0.5]];portConstraint=eastwest;top=0;left=0;right=0;bottom=0;" parent="DOXmJgNx25OAnM6Lbmhb-179" vertex="1">
          <mxGeometry y="180" width="180" height="30" as="geometry" />
        </mxCell>
        <mxCell id="DOXmJgNx25OAnM6Lbmhb-169" value="FK" style="shape=partialRectangle;connectable=0;fillColor=none;top=0;left=0;bottom=0;right=0;editable=1;overflow=hidden;whiteSpace=wrap;html=1;" parent="DOXmJgNx25OAnM6Lbmhb-168" vertex="1">
          <mxGeometry width="30" height="30" as="geometry">
            <mxRectangle width="30" height="30" as="alternateBounds" />
          </mxGeometry>
        </mxCell>
        <mxCell id="DOXmJgNx25OAnM6Lbmhb-170" value="BusinessID" style="shape=partialRectangle;connectable=0;fillColor=none;top=0;left=0;bottom=0;right=0;align=left;spacingLeft=6;overflow=hidden;whiteSpace=wrap;html=1;" parent="DOXmJgNx25OAnM6Lbmhb-168" vertex="1">
          <mxGeometry x="30" width="150" height="30" as="geometry">
            <mxRectangle width="150" height="30" as="alternateBounds" />
          </mxGeometry>
        </mxCell>
        <mxCell id="DOXmJgNx25OAnM6Lbmhb-172" value="" style="group" parent="DOXmJgNx25OAnM6Lbmhb-179" vertex="1" connectable="0">
          <mxGeometry width="180" height="210" as="geometry" />
        </mxCell>
        <mxCell id="DOXmJgNx25OAnM6Lbmhb-152" value="SupportTicket" style="shape=table;startSize=30;container=1;collapsible=1;childLayout=tableLayout;fixedRows=1;rowLines=0;fontStyle=1;align=center;resizeLast=1;html=1;" parent="DOXmJgNx25OAnM6Lbmhb-172" vertex="1">
          <mxGeometry width="180" height="210" as="geometry" />
        </mxCell>
        <mxCell id="DOXmJgNx25OAnM6Lbmhb-153" value="" style="shape=tableRow;horizontal=0;startSize=0;swimlaneHead=0;swimlaneBody=0;fillColor=none;collapsible=0;dropTarget=0;points=[[0,0.5],[1,0.5]];portConstraint=eastwest;top=0;left=0;right=0;bottom=1;" parent="DOXmJgNx25OAnM6Lbmhb-152" vertex="1">
          <mxGeometry y="30" width="180" height="30" as="geometry" />
        </mxCell>
        <mxCell id="DOXmJgNx25OAnM6Lbmhb-154" value="PK" style="shape=partialRectangle;connectable=0;fillColor=none;top=0;left=0;bottom=0;right=0;fontStyle=1;overflow=hidden;whiteSpace=wrap;html=1;" parent="DOXmJgNx25OAnM6Lbmhb-153" vertex="1">
          <mxGeometry width="30" height="30" as="geometry">
            <mxRectangle width="30" height="30" as="alternateBounds" />
          </mxGeometry>
        </mxCell>
        <mxCell id="DOXmJgNx25OAnM6Lbmhb-155" value="TicketID" style="shape=partialRectangle;connectable=0;fillColor=none;top=0;left=0;bottom=0;right=0;align=left;spacingLeft=6;fontStyle=5;overflow=hidden;whiteSpace=wrap;html=1;" parent="DOXmJgNx25OAnM6Lbmhb-153" vertex="1">
          <mxGeometry x="30" width="150" height="30" as="geometry">
            <mxRectangle width="150" height="30" as="alternateBounds" />
          </mxGeometry>
        </mxCell>
        <mxCell id="DOXmJgNx25OAnM6Lbmhb-156" value="" style="shape=tableRow;horizontal=0;startSize=0;swimlaneHead=0;swimlaneBody=0;fillColor=none;collapsible=0;dropTarget=0;points=[[0,0.5],[1,0.5]];portConstraint=eastwest;top=0;left=0;right=0;bottom=0;" parent="DOXmJgNx25OAnM6Lbmhb-152" vertex="1">
          <mxGeometry y="60" width="180" height="30" as="geometry" />
        </mxCell>
        <mxCell id="DOXmJgNx25OAnM6Lbmhb-157" value="" style="shape=partialRectangle;connectable=0;fillColor=none;top=0;left=0;bottom=0;right=0;editable=1;overflow=hidden;whiteSpace=wrap;html=1;" parent="DOXmJgNx25OAnM6Lbmhb-156" vertex="1">
          <mxGeometry width="30" height="30" as="geometry">
            <mxRectangle width="30" height="30" as="alternateBounds" />
          </mxGeometry>
        </mxCell>
        <mxCell id="DOXmJgNx25OAnM6Lbmhb-158" value="Subject" style="shape=partialRectangle;connectable=0;fillColor=none;top=0;left=0;bottom=0;right=0;align=left;spacingLeft=6;overflow=hidden;whiteSpace=wrap;html=1;" parent="DOXmJgNx25OAnM6Lbmhb-156" vertex="1">
          <mxGeometry x="30" width="150" height="30" as="geometry">
            <mxRectangle width="150" height="30" as="alternateBounds" />
          </mxGeometry>
        </mxCell>
        <mxCell id="DOXmJgNx25OAnM6Lbmhb-159" value="" style="shape=tableRow;horizontal=0;startSize=0;swimlaneHead=0;swimlaneBody=0;fillColor=none;collapsible=0;dropTarget=0;points=[[0,0.5],[1,0.5]];portConstraint=eastwest;top=0;left=0;right=0;bottom=0;" parent="DOXmJgNx25OAnM6Lbmhb-152" vertex="1">
          <mxGeometry y="90" width="180" height="30" as="geometry" />
        </mxCell>
        <mxCell id="DOXmJgNx25OAnM6Lbmhb-160" value="" style="shape=partialRectangle;connectable=0;fillColor=none;top=0;left=0;bottom=0;right=0;editable=1;overflow=hidden;whiteSpace=wrap;html=1;" parent="DOXmJgNx25OAnM6Lbmhb-159" vertex="1">
          <mxGeometry width="30" height="30" as="geometry">
            <mxRectangle width="30" height="30" as="alternateBounds" />
          </mxGeometry>
        </mxCell>
        <mxCell id="DOXmJgNx25OAnM6Lbmhb-161" value="Description" style="shape=partialRectangle;connectable=0;fillColor=none;top=0;left=0;bottom=0;right=0;align=left;spacingLeft=6;overflow=hidden;whiteSpace=wrap;html=1;" parent="DOXmJgNx25OAnM6Lbmhb-159" vertex="1">
          <mxGeometry x="30" width="150" height="30" as="geometry">
            <mxRectangle width="150" height="30" as="alternateBounds" />
          </mxGeometry>
        </mxCell>
        <mxCell id="DOXmJgNx25OAnM6Lbmhb-162" value="" style="shape=tableRow;horizontal=0;startSize=0;swimlaneHead=0;swimlaneBody=0;fillColor=none;collapsible=0;dropTarget=0;points=[[0,0.5],[1,0.5]];portConstraint=eastwest;top=0;left=0;right=0;bottom=0;" parent="DOXmJgNx25OAnM6Lbmhb-152" vertex="1">
          <mxGeometry y="120" width="180" height="30" as="geometry" />
        </mxCell>
        <mxCell id="DOXmJgNx25OAnM6Lbmhb-163" value="" style="shape=partialRectangle;connectable=0;fillColor=none;top=0;left=0;bottom=0;right=0;editable=1;overflow=hidden;whiteSpace=wrap;html=1;" parent="DOXmJgNx25OAnM6Lbmhb-162" vertex="1">
          <mxGeometry width="30" height="30" as="geometry">
            <mxRectangle width="30" height="30" as="alternateBounds" />
          </mxGeometry>
        </mxCell>
        <mxCell id="DOXmJgNx25OAnM6Lbmhb-164" value="Status" style="shape=partialRectangle;connectable=0;fillColor=none;top=0;left=0;bottom=0;right=0;align=left;spacingLeft=6;overflow=hidden;whiteSpace=wrap;html=1;" parent="DOXmJgNx25OAnM6Lbmhb-162" vertex="1">
          <mxGeometry x="30" width="150" height="30" as="geometry">
            <mxRectangle width="150" height="30" as="alternateBounds" />
          </mxGeometry>
        </mxCell>
        <mxCell id="DOXmJgNx25OAnM6Lbmhb-171" value="" style="endArrow=none;html=1;rounded=0;exitX=0.167;exitY=0.985;exitDx=0;exitDy=0;exitPerimeter=0;" parent="DOXmJgNx25OAnM6Lbmhb-172" source="DOXmJgNx25OAnM6Lbmhb-168" edge="1">
          <mxGeometry width="50" height="50" relative="1" as="geometry">
            <mxPoint x="60" y="100" as="sourcePoint" />
            <mxPoint x="30" y="150" as="targetPoint" />
          </mxGeometry>
        </mxCell>
        <mxCell id="DOXmJgNx25OAnM6Lbmhb-180" value="" style="group" parent="1" vertex="1" connectable="0">
          <mxGeometry x="620" y="285" width="180" height="180" as="geometry" />
        </mxCell>
        <mxCell id="DOXmJgNx25OAnM6Lbmhb-147" value="" style="shape=tableRow;horizontal=0;startSize=0;swimlaneHead=0;swimlaneBody=0;fillColor=none;collapsible=0;dropTarget=0;points=[[0,0.5],[1,0.5]];portConstraint=eastwest;top=0;left=0;right=0;bottom=0;" parent="DOXmJgNx25OAnM6Lbmhb-180" vertex="1">
          <mxGeometry y="150" width="180" height="30" as="geometry" />
        </mxCell>
        <mxCell id="DOXmJgNx25OAnM6Lbmhb-178" value="" style="group" parent="DOXmJgNx25OAnM6Lbmhb-147" vertex="1" connectable="0">
          <mxGeometry width="180" height="30" as="geometry" />
        </mxCell>
        <mxCell id="DOXmJgNx25OAnM6Lbmhb-148" value="FK" style="shape=partialRectangle;connectable=0;fillColor=none;top=0;left=0;bottom=0;right=0;editable=1;overflow=hidden;whiteSpace=wrap;html=1;" parent="DOXmJgNx25OAnM6Lbmhb-178" vertex="1">
          <mxGeometry width="30" height="30" as="geometry">
            <mxRectangle width="30" height="30" as="alternateBounds" />
          </mxGeometry>
        </mxCell>
        <mxCell id="DOXmJgNx25OAnM6Lbmhb-149" value="OrderID" style="shape=partialRectangle;connectable=0;fillColor=none;top=0;left=0;bottom=0;right=0;align=left;spacingLeft=6;overflow=hidden;whiteSpace=wrap;html=1;" parent="DOXmJgNx25OAnM6Lbmhb-178" vertex="1">
          <mxGeometry x="30" width="150" height="30" as="geometry">
            <mxRectangle width="150" height="30" as="alternateBounds" />
          </mxGeometry>
        </mxCell>
        <mxCell id="DOXmJgNx25OAnM6Lbmhb-151" value="" style="group" parent="DOXmJgNx25OAnM6Lbmhb-180" vertex="1" connectable="0">
          <mxGeometry width="180" height="180" as="geometry" />
        </mxCell>
        <mxCell id="DOXmJgNx25OAnM6Lbmhb-176" value="" style="group" parent="DOXmJgNx25OAnM6Lbmhb-151" vertex="1" connectable="0">
          <mxGeometry width="180" height="180" as="geometry" />
        </mxCell>
        <mxCell id="DOXmJgNx25OAnM6Lbmhb-177" value="" style="group" parent="DOXmJgNx25OAnM6Lbmhb-176" vertex="1" connectable="0">
          <mxGeometry width="180" height="180" as="geometry" />
        </mxCell>
        <mxCell id="DOXmJgNx25OAnM6Lbmhb-131" value="Payment" style="shape=table;startSize=30;container=1;collapsible=1;childLayout=tableLayout;fixedRows=1;rowLines=0;fontStyle=1;align=center;resizeLast=1;html=1;" parent="DOXmJgNx25OAnM6Lbmhb-177" vertex="1">
          <mxGeometry width="180" height="180" as="geometry" />
        </mxCell>
        <mxCell id="DOXmJgNx25OAnM6Lbmhb-132" value="" style="shape=tableRow;horizontal=0;startSize=0;swimlaneHead=0;swimlaneBody=0;fillColor=none;collapsible=0;dropTarget=0;points=[[0,0.5],[1,0.5]];portConstraint=eastwest;top=0;left=0;right=0;bottom=1;" parent="DOXmJgNx25OAnM6Lbmhb-131" vertex="1">
          <mxGeometry y="30" width="180" height="30" as="geometry" />
        </mxCell>
        <mxCell id="DOXmJgNx25OAnM6Lbmhb-133" value="PK" style="shape=partialRectangle;connectable=0;fillColor=none;top=0;left=0;bottom=0;right=0;fontStyle=1;overflow=hidden;whiteSpace=wrap;html=1;" parent="DOXmJgNx25OAnM6Lbmhb-132" vertex="1">
          <mxGeometry width="30" height="30" as="geometry">
            <mxRectangle width="30" height="30" as="alternateBounds" />
          </mxGeometry>
        </mxCell>
        <mxCell id="DOXmJgNx25OAnM6Lbmhb-134" value="PaymentID" style="shape=partialRectangle;connectable=0;fillColor=none;top=0;left=0;bottom=0;right=0;align=left;spacingLeft=6;fontStyle=5;overflow=hidden;whiteSpace=wrap;html=1;" parent="DOXmJgNx25OAnM6Lbmhb-132" vertex="1">
          <mxGeometry x="30" width="150" height="30" as="geometry">
            <mxRectangle width="150" height="30" as="alternateBounds" />
          </mxGeometry>
        </mxCell>
        <mxCell id="DOXmJgNx25OAnM6Lbmhb-135" value="" style="shape=tableRow;horizontal=0;startSize=0;swimlaneHead=0;swimlaneBody=0;fillColor=none;collapsible=0;dropTarget=0;points=[[0,0.5],[1,0.5]];portConstraint=eastwest;top=0;left=0;right=0;bottom=0;" parent="DOXmJgNx25OAnM6Lbmhb-131" vertex="1">
          <mxGeometry y="60" width="180" height="30" as="geometry" />
        </mxCell>
        <mxCell id="DOXmJgNx25OAnM6Lbmhb-136" value="" style="shape=partialRectangle;connectable=0;fillColor=none;top=0;left=0;bottom=0;right=0;editable=1;overflow=hidden;whiteSpace=wrap;html=1;" parent="DOXmJgNx25OAnM6Lbmhb-135" vertex="1">
          <mxGeometry width="30" height="30" as="geometry">
            <mxRectangle width="30" height="30" as="alternateBounds" />
          </mxGeometry>
        </mxCell>
        <mxCell id="DOXmJgNx25OAnM6Lbmhb-137" value="PaymentDate" style="shape=partialRectangle;connectable=0;fillColor=none;top=0;left=0;bottom=0;right=0;align=left;spacingLeft=6;overflow=hidden;whiteSpace=wrap;html=1;" parent="DOXmJgNx25OAnM6Lbmhb-135" vertex="1">
          <mxGeometry x="30" width="150" height="30" as="geometry">
            <mxRectangle width="150" height="30" as="alternateBounds" />
          </mxGeometry>
        </mxCell>
        <mxCell id="DOXmJgNx25OAnM6Lbmhb-138" value="" style="shape=tableRow;horizontal=0;startSize=0;swimlaneHead=0;swimlaneBody=0;fillColor=none;collapsible=0;dropTarget=0;points=[[0,0.5],[1,0.5]];portConstraint=eastwest;top=0;left=0;right=0;bottom=0;" parent="DOXmJgNx25OAnM6Lbmhb-131" vertex="1">
          <mxGeometry y="90" width="180" height="30" as="geometry" />
        </mxCell>
        <mxCell id="DOXmJgNx25OAnM6Lbmhb-139" value="" style="shape=partialRectangle;connectable=0;fillColor=none;top=0;left=0;bottom=0;right=0;editable=1;overflow=hidden;whiteSpace=wrap;html=1;" parent="DOXmJgNx25OAnM6Lbmhb-138" vertex="1">
          <mxGeometry width="30" height="30" as="geometry">
            <mxRectangle width="30" height="30" as="alternateBounds" />
          </mxGeometry>
        </mxCell>
        <mxCell id="DOXmJgNx25OAnM6Lbmhb-140" value="Amount" style="shape=partialRectangle;connectable=0;fillColor=none;top=0;left=0;bottom=0;right=0;align=left;spacingLeft=6;overflow=hidden;whiteSpace=wrap;html=1;" parent="DOXmJgNx25OAnM6Lbmhb-138" vertex="1">
          <mxGeometry x="30" width="150" height="30" as="geometry">
            <mxRectangle width="150" height="30" as="alternateBounds" />
          </mxGeometry>
        </mxCell>
        <mxCell id="DOXmJgNx25OAnM6Lbmhb-141" value="" style="shape=tableRow;horizontal=0;startSize=0;swimlaneHead=0;swimlaneBody=0;fillColor=none;collapsible=0;dropTarget=0;points=[[0,0.5],[1,0.5]];portConstraint=eastwest;top=0;left=0;right=0;bottom=0;" parent="DOXmJgNx25OAnM6Lbmhb-131" vertex="1">
          <mxGeometry y="120" width="180" height="30" as="geometry" />
        </mxCell>
        <mxCell id="DOXmJgNx25OAnM6Lbmhb-142" value="" style="shape=partialRectangle;connectable=0;fillColor=none;top=0;left=0;bottom=0;right=0;editable=1;overflow=hidden;whiteSpace=wrap;html=1;" parent="DOXmJgNx25OAnM6Lbmhb-141" vertex="1">
          <mxGeometry width="30" height="30" as="geometry">
            <mxRectangle width="30" height="30" as="alternateBounds" />
          </mxGeometry>
        </mxCell>
        <mxCell id="DOXmJgNx25OAnM6Lbmhb-143" value="PaymentMethod" style="shape=partialRectangle;connectable=0;fillColor=none;top=0;left=0;bottom=0;right=0;align=left;spacingLeft=6;overflow=hidden;whiteSpace=wrap;html=1;" parent="DOXmJgNx25OAnM6Lbmhb-141" vertex="1">
          <mxGeometry x="30" width="150" height="30" as="geometry">
            <mxRectangle width="150" height="30" as="alternateBounds" />
          </mxGeometry>
        </mxCell>
        <mxCell id="DOXmJgNx25OAnM6Lbmhb-150" value="" style="endArrow=none;html=1;rounded=0;exitX=0.167;exitY=0.981;exitDx=0;exitDy=0;exitPerimeter=0;entryX=0.167;entryY=-0.095;entryDx=0;entryDy=0;entryPerimeter=0;" parent="DOXmJgNx25OAnM6Lbmhb-180" source="DOXmJgNx25OAnM6Lbmhb-147" target="DOXmJgNx25OAnM6Lbmhb-147" edge="1">
          <mxGeometry width="50" height="50" relative="1" as="geometry">
            <mxPoint x="420" y="520" as="sourcePoint" />
            <mxPoint x="470" y="470" as="targetPoint" />
          </mxGeometry>
        </mxCell>
        <mxCell id="DOXmJgNx25OAnM6Lbmhb-181" style="edgeStyle=orthogonalEdgeStyle;rounded=0;orthogonalLoop=1;jettySize=auto;html=1;exitX=0;exitY=0.5;exitDx=0;exitDy=0;entryX=0.3;entryY=0.667;entryDx=0;entryDy=0;entryPerimeter=0;endArrow=ERone;endFill=0;startArrow=ERone;startFill=0;" parent="1" source="DOXmJgNx25OAnM6Lbmhb-9" target="DOXmJgNx25OAnM6Lbmhb-47" edge="1">
          <mxGeometry relative="1" as="geometry">
            <Array as="points">
              <mxPoint x="60" y="325" />
              <mxPoint x="60" y="710" />
            </Array>
          </mxGeometry>
        </mxCell>
        <mxCell id="DOXmJgNx25OAnM6Lbmhb-182" style="edgeStyle=orthogonalEdgeStyle;rounded=0;orthogonalLoop=1;jettySize=auto;html=1;entryX=0;entryY=0.5;entryDx=0;entryDy=0;startArrow=ERmany;startFill=0;endArrow=ERone;endFill=0;" parent="1" source="DOXmJgNx25OAnM6Lbmhb-67" target="DOXmJgNx25OAnM6Lbmhb-30" edge="1">
          <mxGeometry relative="1" as="geometry">
            <mxPoint x="30" y="550" as="targetPoint" />
            <Array as="points">
              <mxPoint x="40" y="945" />
              <mxPoint x="40" y="555" />
            </Array>
            <mxPoint x="85" y="945" as="sourcePoint" />
          </mxGeometry>
        </mxCell>
        <mxCell id="DOXmJgNx25OAnM6Lbmhb-183" style="edgeStyle=orthogonalEdgeStyle;rounded=0;orthogonalLoop=1;jettySize=auto;html=1;entryX=0.3;entryY=0.667;entryDx=0;entryDy=0;entryPerimeter=0;startArrow=ERone;startFill=0;endArrow=ERmany;endFill=0;" parent="1" source="DOXmJgNx25OAnM6Lbmhb-9" target="DOXmJgNx25OAnM6Lbmhb-85" edge="1">
          <mxGeometry relative="1" as="geometry">
            <Array as="points">
              <mxPoint x="340" y="325" />
              <mxPoint x="340" y="660" />
            </Array>
          </mxGeometry>
        </mxCell>
        <mxCell id="DOXmJgNx25OAnM6Lbmhb-184" style="edgeStyle=orthogonalEdgeStyle;rounded=0;orthogonalLoop=1;jettySize=auto;html=1;entryX=0;entryY=0.5;entryDx=0;entryDy=0;endArrow=ERmany;endFill=0;" parent="1" source="DOXmJgNx25OAnM6Lbmhb-9" target="DOXmJgNx25OAnM6Lbmhb-96" edge="1">
          <mxGeometry relative="1" as="geometry">
            <Array as="points">
              <mxPoint x="340" y="325" />
              <mxPoint x="340" y="820" />
            </Array>
          </mxGeometry>
        </mxCell>
        <mxCell id="DOXmJgNx25OAnM6Lbmhb-185" style="edgeStyle=orthogonalEdgeStyle;rounded=0;orthogonalLoop=1;jettySize=auto;html=1;entryX=0;entryY=0.5;entryDx=0;entryDy=0;endArrow=ERmany;endFill=0;" parent="1" source="DOXmJgNx25OAnM6Lbmhb-9" target="DOXmJgNx25OAnM6Lbmhb-109" edge="1">
          <mxGeometry relative="1" as="geometry">
            <Array as="points">
              <mxPoint x="340" y="325" />
              <mxPoint x="340" y="420" />
            </Array>
          </mxGeometry>
        </mxCell>
        <mxCell id="DOXmJgNx25OAnM6Lbmhb-188" style="edgeStyle=orthogonalEdgeStyle;rounded=0;orthogonalLoop=1;jettySize=auto;html=1;entryX=0;entryY=0.5;entryDx=0;entryDy=0;endArrow=ERmany;endFill=0;startArrow=ERone;startFill=0;" parent="1" source="DOXmJgNx25OAnM6Lbmhb-9" target="DOXmJgNx25OAnM6Lbmhb-128" edge="1">
          <mxGeometry relative="1" as="geometry">
            <Array as="points">
              <mxPoint x="340" y="325" />
              <mxPoint x="340" y="985" />
            </Array>
          </mxGeometry>
        </mxCell>
        <mxCell id="DOXmJgNx25OAnM6Lbmhb-190" style="edgeStyle=orthogonalEdgeStyle;rounded=0;orthogonalLoop=1;jettySize=auto;html=1;startArrow=ERone;startFill=0;endArrow=ERmany;endFill=0;" parent="1" source="DOXmJgNx25OAnM6Lbmhb-9" edge="1">
          <mxGeometry relative="1" as="geometry">
            <mxPoint x="80" y="230" as="targetPoint" />
            <Array as="points">
              <mxPoint x="60" y="325" />
              <mxPoint x="60" y="230" />
            </Array>
          </mxGeometry>
        </mxCell>
        <mxCell id="2fdVIH710P3VJKSP07Rc-1" style="edgeStyle=orthogonalEdgeStyle;rounded=0;orthogonalLoop=1;jettySize=auto;html=1;startArrow=ERone;startFill=0;endArrow=ERmany;endFill=0;" parent="1" source="DOXmJgNx25OAnM6Lbmhb-50" target="DOXmJgNx25OAnM6Lbmhb-93" edge="1">
          <mxGeometry relative="1" as="geometry" />
        </mxCell>
        <mxCell id="cC9gz4I-F6fsXsZ66nNf-18" value="" style="group" vertex="1" connectable="0" parent="1">
          <mxGeometry x="105" y="1040" width="180" height="230" as="geometry" />
        </mxCell>
        <mxCell id="cC9gz4I-F6fsXsZ66nNf-1" value="Supplier" style="shape=table;startSize=30;container=1;collapsible=1;childLayout=tableLayout;fixedRows=1;rowLines=0;fontStyle=1;align=center;resizeLast=1;html=1;" vertex="1" parent="cC9gz4I-F6fsXsZ66nNf-18">
          <mxGeometry width="180" height="210" as="geometry" />
        </mxCell>
        <mxCell id="cC9gz4I-F6fsXsZ66nNf-2" value="" style="shape=tableRow;horizontal=0;startSize=0;swimlaneHead=0;swimlaneBody=0;fillColor=none;collapsible=0;dropTarget=0;points=[[0,0.5],[1,0.5]];portConstraint=eastwest;top=0;left=0;right=0;bottom=1;" vertex="1" parent="cC9gz4I-F6fsXsZ66nNf-1">
          <mxGeometry y="30" width="180" height="30" as="geometry" />
        </mxCell>
        <mxCell id="cC9gz4I-F6fsXsZ66nNf-3" value="PK" style="shape=partialRectangle;connectable=0;fillColor=none;top=0;left=0;bottom=0;right=0;fontStyle=1;overflow=hidden;whiteSpace=wrap;html=1;" vertex="1" parent="cC9gz4I-F6fsXsZ66nNf-2">
          <mxGeometry width="30" height="30" as="geometry">
            <mxRectangle width="30" height="30" as="alternateBounds" />
          </mxGeometry>
        </mxCell>
        <mxCell id="cC9gz4I-F6fsXsZ66nNf-4" value="SupplierID" style="shape=partialRectangle;connectable=0;fillColor=none;top=0;left=0;bottom=0;right=0;align=left;spacingLeft=6;fontStyle=5;overflow=hidden;whiteSpace=wrap;html=1;" vertex="1" parent="cC9gz4I-F6fsXsZ66nNf-2">
          <mxGeometry x="30" width="150" height="30" as="geometry">
            <mxRectangle width="150" height="30" as="alternateBounds" />
          </mxGeometry>
        </mxCell>
        <mxCell id="cC9gz4I-F6fsXsZ66nNf-5" value="" style="shape=tableRow;horizontal=0;startSize=0;swimlaneHead=0;swimlaneBody=0;fillColor=none;collapsible=0;dropTarget=0;points=[[0,0.5],[1,0.5]];portConstraint=eastwest;top=0;left=0;right=0;bottom=0;" vertex="1" parent="cC9gz4I-F6fsXsZ66nNf-1">
          <mxGeometry y="60" width="180" height="30" as="geometry" />
        </mxCell>
        <mxCell id="cC9gz4I-F6fsXsZ66nNf-6" value="" style="shape=partialRectangle;connectable=0;fillColor=none;top=0;left=0;bottom=0;right=0;editable=1;overflow=hidden;whiteSpace=wrap;html=1;" vertex="1" parent="cC9gz4I-F6fsXsZ66nNf-5">
          <mxGeometry width="30" height="30" as="geometry">
            <mxRectangle width="30" height="30" as="alternateBounds" />
          </mxGeometry>
        </mxCell>
        <mxCell id="cC9gz4I-F6fsXsZ66nNf-7" value="SupplierName" style="shape=partialRectangle;connectable=0;fillColor=none;top=0;left=0;bottom=0;right=0;align=left;spacingLeft=6;overflow=hidden;whiteSpace=wrap;html=1;" vertex="1" parent="cC9gz4I-F6fsXsZ66nNf-5">
          <mxGeometry x="30" width="150" height="30" as="geometry">
            <mxRectangle width="150" height="30" as="alternateBounds" />
          </mxGeometry>
        </mxCell>
        <mxCell id="cC9gz4I-F6fsXsZ66nNf-8" value="" style="shape=tableRow;horizontal=0;startSize=0;swimlaneHead=0;swimlaneBody=0;fillColor=none;collapsible=0;dropTarget=0;points=[[0,0.5],[1,0.5]];portConstraint=eastwest;top=0;left=0;right=0;bottom=0;" vertex="1" parent="cC9gz4I-F6fsXsZ66nNf-1">
          <mxGeometry y="90" width="180" height="30" as="geometry" />
        </mxCell>
        <mxCell id="cC9gz4I-F6fsXsZ66nNf-9" value="" style="shape=partialRectangle;connectable=0;fillColor=none;top=0;left=0;bottom=0;right=0;editable=1;overflow=hidden;whiteSpace=wrap;html=1;" vertex="1" parent="cC9gz4I-F6fsXsZ66nNf-8">
          <mxGeometry width="30" height="30" as="geometry">
            <mxRectangle width="30" height="30" as="alternateBounds" />
          </mxGeometry>
        </mxCell>
        <mxCell id="cC9gz4I-F6fsXsZ66nNf-10" value="ContactPerson" style="shape=partialRectangle;connectable=0;fillColor=none;top=0;left=0;bottom=0;right=0;align=left;spacingLeft=6;overflow=hidden;whiteSpace=wrap;html=1;" vertex="1" parent="cC9gz4I-F6fsXsZ66nNf-8">
          <mxGeometry x="30" width="150" height="30" as="geometry">
            <mxRectangle width="150" height="30" as="alternateBounds" />
          </mxGeometry>
        </mxCell>
        <mxCell id="cC9gz4I-F6fsXsZ66nNf-11" value="" style="shape=tableRow;horizontal=0;startSize=0;swimlaneHead=0;swimlaneBody=0;fillColor=none;collapsible=0;dropTarget=0;points=[[0,0.5],[1,0.5]];portConstraint=eastwest;top=0;left=0;right=0;bottom=0;" vertex="1" parent="cC9gz4I-F6fsXsZ66nNf-1">
          <mxGeometry y="120" width="180" height="30" as="geometry" />
        </mxCell>
        <mxCell id="cC9gz4I-F6fsXsZ66nNf-12" value="" style="shape=partialRectangle;connectable=0;fillColor=none;top=0;left=0;bottom=0;right=0;editable=1;overflow=hidden;whiteSpace=wrap;html=1;" vertex="1" parent="cC9gz4I-F6fsXsZ66nNf-11">
          <mxGeometry width="30" height="30" as="geometry">
            <mxRectangle width="30" height="30" as="alternateBounds" />
          </mxGeometry>
        </mxCell>
        <mxCell id="cC9gz4I-F6fsXsZ66nNf-13" value="ContactEmail" style="shape=partialRectangle;connectable=0;fillColor=none;top=0;left=0;bottom=0;right=0;align=left;spacingLeft=6;overflow=hidden;whiteSpace=wrap;html=1;" vertex="1" parent="cC9gz4I-F6fsXsZ66nNf-11">
          <mxGeometry x="30" width="150" height="30" as="geometry">
            <mxRectangle width="150" height="30" as="alternateBounds" />
          </mxGeometry>
        </mxCell>
        <mxCell id="cC9gz4I-F6fsXsZ66nNf-14" value="" style="shape=tableRow;horizontal=0;startSize=0;swimlaneHead=0;swimlaneBody=0;fillColor=none;collapsible=0;dropTarget=0;points=[[0,0.5],[1,0.5]];portConstraint=eastwest;top=0;left=0;right=0;bottom=0;" vertex="1" parent="cC9gz4I-F6fsXsZ66nNf-18">
          <mxGeometry y="150" width="180" height="30" as="geometry" />
        </mxCell>
        <mxCell id="cC9gz4I-F6fsXsZ66nNf-15" value="" style="shape=partialRectangle;connectable=0;fillColor=none;top=0;left=0;bottom=0;right=0;editable=1;overflow=hidden;whiteSpace=wrap;html=1;" vertex="1" parent="cC9gz4I-F6fsXsZ66nNf-14">
          <mxGeometry width="30" height="30" as="geometry">
            <mxRectangle width="30" height="30" as="alternateBounds" />
          </mxGeometry>
        </mxCell>
        <mxCell id="cC9gz4I-F6fsXsZ66nNf-16" value="ContactPhone" style="shape=partialRectangle;connectable=0;fillColor=none;top=0;left=0;bottom=0;right=0;align=left;spacingLeft=6;overflow=hidden;whiteSpace=wrap;html=1;" vertex="1" parent="cC9gz4I-F6fsXsZ66nNf-14">
          <mxGeometry x="30" width="150" height="30" as="geometry">
            <mxRectangle width="150" height="30" as="alternateBounds" />
          </mxGeometry>
        </mxCell>
        <mxCell id="cC9gz4I-F6fsXsZ66nNf-17" value="" style="endArrow=none;html=1;rounded=0;exitX=0.167;exitY=1.016;exitDx=0;exitDy=0;exitPerimeter=0;" edge="1" parent="cC9gz4I-F6fsXsZ66nNf-18" source="cC9gz4I-F6fsXsZ66nNf-14">
          <mxGeometry width="50" height="50" relative="1" as="geometry">
            <mxPoint x="-40" y="150" as="sourcePoint" />
            <mxPoint x="30" y="150" as="targetPoint" />
          </mxGeometry>
        </mxCell>
        <mxCell id="cC9gz4I-F6fsXsZ66nNf-79" value="BusinessID" style="shape=partialRectangle;connectable=0;fillColor=none;top=0;left=0;bottom=0;right=0;align=left;spacingLeft=6;overflow=hidden;whiteSpace=wrap;html=1;" vertex="1" parent="cC9gz4I-F6fsXsZ66nNf-18">
          <mxGeometry x="30" y="180" width="150" height="30" as="geometry">
            <mxRectangle width="150" height="30" as="alternateBounds" />
          </mxGeometry>
        </mxCell>
        <mxCell id="cC9gz4I-F6fsXsZ66nNf-80" value="FK" style="shape=partialRectangle;connectable=0;fillColor=none;top=0;left=0;bottom=0;right=0;editable=1;overflow=hidden;whiteSpace=wrap;html=1;" vertex="1" parent="cC9gz4I-F6fsXsZ66nNf-18">
          <mxGeometry y="180" width="30" height="30" as="geometry">
            <mxRectangle width="30" height="30" as="alternateBounds" />
          </mxGeometry>
        </mxCell>
        <mxCell id="cC9gz4I-F6fsXsZ66nNf-81" value="" style="endArrow=none;html=1;rounded=0;" edge="1" parent="cC9gz4I-F6fsXsZ66nNf-18">
          <mxGeometry width="50" height="50" relative="1" as="geometry">
            <mxPoint x="30" y="209.94000000000005" as="sourcePoint" />
            <mxPoint x="30" y="180" as="targetPoint" />
          </mxGeometry>
        </mxCell>
        <mxCell id="cC9gz4I-F6fsXsZ66nNf-37" value="" style="group" vertex="1" connectable="0" parent="1">
          <mxGeometry x="630" y="730" width="180" height="210" as="geometry" />
        </mxCell>
        <mxCell id="cC9gz4I-F6fsXsZ66nNf-19" value="OrderItem" style="shape=table;startSize=30;container=1;collapsible=1;childLayout=tableLayout;fixedRows=1;rowLines=0;fontStyle=1;align=center;resizeLast=1;html=1;" vertex="1" parent="cC9gz4I-F6fsXsZ66nNf-37">
          <mxGeometry width="180" height="210" as="geometry" />
        </mxCell>
        <mxCell id="cC9gz4I-F6fsXsZ66nNf-20" value="" style="shape=tableRow;horizontal=0;startSize=0;swimlaneHead=0;swimlaneBody=0;fillColor=none;collapsible=0;dropTarget=0;points=[[0,0.5],[1,0.5]];portConstraint=eastwest;top=0;left=0;right=0;bottom=1;" vertex="1" parent="cC9gz4I-F6fsXsZ66nNf-19">
          <mxGeometry y="30" width="180" height="30" as="geometry" />
        </mxCell>
        <mxCell id="cC9gz4I-F6fsXsZ66nNf-21" value="PK" style="shape=partialRectangle;connectable=0;fillColor=none;top=0;left=0;bottom=0;right=0;fontStyle=1;overflow=hidden;whiteSpace=wrap;html=1;" vertex="1" parent="cC9gz4I-F6fsXsZ66nNf-20">
          <mxGeometry width="30" height="30" as="geometry">
            <mxRectangle width="30" height="30" as="alternateBounds" />
          </mxGeometry>
        </mxCell>
        <mxCell id="cC9gz4I-F6fsXsZ66nNf-22" value="OrderItemID" style="shape=partialRectangle;connectable=0;fillColor=none;top=0;left=0;bottom=0;right=0;align=left;spacingLeft=6;fontStyle=5;overflow=hidden;whiteSpace=wrap;html=1;" vertex="1" parent="cC9gz4I-F6fsXsZ66nNf-20">
          <mxGeometry x="30" width="150" height="30" as="geometry">
            <mxRectangle width="150" height="30" as="alternateBounds" />
          </mxGeometry>
        </mxCell>
        <mxCell id="cC9gz4I-F6fsXsZ66nNf-23" value="" style="shape=tableRow;horizontal=0;startSize=0;swimlaneHead=0;swimlaneBody=0;fillColor=none;collapsible=0;dropTarget=0;points=[[0,0.5],[1,0.5]];portConstraint=eastwest;top=0;left=0;right=0;bottom=0;" vertex="1" parent="cC9gz4I-F6fsXsZ66nNf-19">
          <mxGeometry y="60" width="180" height="30" as="geometry" />
        </mxCell>
        <mxCell id="cC9gz4I-F6fsXsZ66nNf-24" value="FK" style="shape=partialRectangle;connectable=0;fillColor=none;top=0;left=0;bottom=0;right=0;editable=1;overflow=hidden;whiteSpace=wrap;html=1;" vertex="1" parent="cC9gz4I-F6fsXsZ66nNf-23">
          <mxGeometry width="30" height="30" as="geometry">
            <mxRectangle width="30" height="30" as="alternateBounds" />
          </mxGeometry>
        </mxCell>
        <mxCell id="cC9gz4I-F6fsXsZ66nNf-25" value="OrderID" style="shape=partialRectangle;connectable=0;fillColor=none;top=0;left=0;bottom=0;right=0;align=left;spacingLeft=6;overflow=hidden;whiteSpace=wrap;html=1;" vertex="1" parent="cC9gz4I-F6fsXsZ66nNf-23">
          <mxGeometry x="30" width="150" height="30" as="geometry">
            <mxRectangle width="150" height="30" as="alternateBounds" />
          </mxGeometry>
        </mxCell>
        <mxCell id="cC9gz4I-F6fsXsZ66nNf-26" value="" style="shape=tableRow;horizontal=0;startSize=0;swimlaneHead=0;swimlaneBody=0;fillColor=none;collapsible=0;dropTarget=0;points=[[0,0.5],[1,0.5]];portConstraint=eastwest;top=0;left=0;right=0;bottom=0;" vertex="1" parent="cC9gz4I-F6fsXsZ66nNf-19">
          <mxGeometry y="90" width="180" height="30" as="geometry" />
        </mxCell>
        <mxCell id="cC9gz4I-F6fsXsZ66nNf-27" value="FK" style="shape=partialRectangle;connectable=0;fillColor=none;top=0;left=0;bottom=0;right=0;editable=1;overflow=hidden;whiteSpace=wrap;html=1;" vertex="1" parent="cC9gz4I-F6fsXsZ66nNf-26">
          <mxGeometry width="30" height="30" as="geometry">
            <mxRectangle width="30" height="30" as="alternateBounds" />
          </mxGeometry>
        </mxCell>
        <mxCell id="cC9gz4I-F6fsXsZ66nNf-28" value="ProductID" style="shape=partialRectangle;connectable=0;fillColor=none;top=0;left=0;bottom=0;right=0;align=left;spacingLeft=6;overflow=hidden;whiteSpace=wrap;html=1;" vertex="1" parent="cC9gz4I-F6fsXsZ66nNf-26">
          <mxGeometry x="30" width="150" height="30" as="geometry">
            <mxRectangle width="150" height="30" as="alternateBounds" />
          </mxGeometry>
        </mxCell>
        <mxCell id="cC9gz4I-F6fsXsZ66nNf-29" value="" style="shape=tableRow;horizontal=0;startSize=0;swimlaneHead=0;swimlaneBody=0;fillColor=none;collapsible=0;dropTarget=0;points=[[0,0.5],[1,0.5]];portConstraint=eastwest;top=0;left=0;right=0;bottom=0;" vertex="1" parent="cC9gz4I-F6fsXsZ66nNf-19">
          <mxGeometry y="120" width="180" height="30" as="geometry" />
        </mxCell>
        <mxCell id="cC9gz4I-F6fsXsZ66nNf-30" value="" style="shape=partialRectangle;connectable=0;fillColor=none;top=0;left=0;bottom=0;right=0;editable=1;overflow=hidden;whiteSpace=wrap;html=1;" vertex="1" parent="cC9gz4I-F6fsXsZ66nNf-29">
          <mxGeometry width="30" height="30" as="geometry">
            <mxRectangle width="30" height="30" as="alternateBounds" />
          </mxGeometry>
        </mxCell>
        <mxCell id="cC9gz4I-F6fsXsZ66nNf-31" value="Quantity" style="shape=partialRectangle;connectable=0;fillColor=none;top=0;left=0;bottom=0;right=0;align=left;spacingLeft=6;overflow=hidden;whiteSpace=wrap;html=1;" vertex="1" parent="cC9gz4I-F6fsXsZ66nNf-29">
          <mxGeometry x="30" width="150" height="30" as="geometry">
            <mxRectangle width="150" height="30" as="alternateBounds" />
          </mxGeometry>
        </mxCell>
        <mxCell id="cC9gz4I-F6fsXsZ66nNf-32" value="" style="shape=tableRow;horizontal=0;startSize=0;swimlaneHead=0;swimlaneBody=0;fillColor=none;collapsible=0;dropTarget=0;points=[[0,0.5],[1,0.5]];portConstraint=eastwest;top=0;left=0;right=0;bottom=0;" vertex="1" parent="cC9gz4I-F6fsXsZ66nNf-37">
          <mxGeometry y="150" width="180" height="30" as="geometry" />
        </mxCell>
        <mxCell id="cC9gz4I-F6fsXsZ66nNf-33" value="" style="shape=partialRectangle;connectable=0;fillColor=none;top=0;left=0;bottom=0;right=0;editable=1;overflow=hidden;whiteSpace=wrap;html=1;" vertex="1" parent="cC9gz4I-F6fsXsZ66nNf-32">
          <mxGeometry width="30" height="30" as="geometry">
            <mxRectangle width="30" height="30" as="alternateBounds" />
          </mxGeometry>
        </mxCell>
        <mxCell id="cC9gz4I-F6fsXsZ66nNf-34" value="Price" style="shape=partialRectangle;connectable=0;fillColor=none;top=0;left=0;bottom=0;right=0;align=left;spacingLeft=6;overflow=hidden;whiteSpace=wrap;html=1;" vertex="1" parent="cC9gz4I-F6fsXsZ66nNf-32">
          <mxGeometry x="30" width="150" height="30" as="geometry">
            <mxRectangle width="150" height="30" as="alternateBounds" />
          </mxGeometry>
        </mxCell>
        <mxCell id="cC9gz4I-F6fsXsZ66nNf-35" value="Subtotal" style="shape=partialRectangle;connectable=0;fillColor=none;top=0;left=0;bottom=0;right=0;align=left;spacingLeft=6;overflow=hidden;whiteSpace=wrap;html=1;" vertex="1" parent="cC9gz4I-F6fsXsZ66nNf-37">
          <mxGeometry x="30" y="180" width="150" height="30" as="geometry">
            <mxRectangle width="150" height="30" as="alternateBounds" />
          </mxGeometry>
        </mxCell>
        <mxCell id="cC9gz4I-F6fsXsZ66nNf-36" value="" style="endArrow=none;html=1;rounded=0;entryX=0.166;entryY=-0.027;entryDx=0;entryDy=0;entryPerimeter=0;" edge="1" parent="cC9gz4I-F6fsXsZ66nNf-37" target="cC9gz4I-F6fsXsZ66nNf-32">
          <mxGeometry width="50" height="50" relative="1" as="geometry">
            <mxPoint x="30" y="210" as="sourcePoint" />
            <mxPoint x="65" y="170" as="targetPoint" />
          </mxGeometry>
        </mxCell>
        <mxCell id="cC9gz4I-F6fsXsZ66nNf-59" value="" style="group" vertex="1" connectable="0" parent="1">
          <mxGeometry x="370" y="1170" width="185" height="250" as="geometry" />
        </mxCell>
        <mxCell id="cC9gz4I-F6fsXsZ66nNf-38" value="Promotion" style="shape=table;startSize=30;container=1;collapsible=1;childLayout=tableLayout;fixedRows=1;rowLines=0;fontStyle=1;align=center;resizeLast=1;html=1;" vertex="1" parent="cC9gz4I-F6fsXsZ66nNf-59">
          <mxGeometry width="180" height="240" as="geometry" />
        </mxCell>
        <mxCell id="cC9gz4I-F6fsXsZ66nNf-39" value="" style="shape=tableRow;horizontal=0;startSize=0;swimlaneHead=0;swimlaneBody=0;fillColor=none;collapsible=0;dropTarget=0;points=[[0,0.5],[1,0.5]];portConstraint=eastwest;top=0;left=0;right=0;bottom=1;" vertex="1" parent="cC9gz4I-F6fsXsZ66nNf-38">
          <mxGeometry y="30" width="180" height="30" as="geometry" />
        </mxCell>
        <mxCell id="cC9gz4I-F6fsXsZ66nNf-40" value="PK" style="shape=partialRectangle;connectable=0;fillColor=none;top=0;left=0;bottom=0;right=0;fontStyle=1;overflow=hidden;whiteSpace=wrap;html=1;" vertex="1" parent="cC9gz4I-F6fsXsZ66nNf-39">
          <mxGeometry width="30" height="30" as="geometry">
            <mxRectangle width="30" height="30" as="alternateBounds" />
          </mxGeometry>
        </mxCell>
        <mxCell id="cC9gz4I-F6fsXsZ66nNf-41" value="PromotionID" style="shape=partialRectangle;connectable=0;fillColor=none;top=0;left=0;bottom=0;right=0;align=left;spacingLeft=6;fontStyle=5;overflow=hidden;whiteSpace=wrap;html=1;" vertex="1" parent="cC9gz4I-F6fsXsZ66nNf-39">
          <mxGeometry x="30" width="150" height="30" as="geometry">
            <mxRectangle width="150" height="30" as="alternateBounds" />
          </mxGeometry>
        </mxCell>
        <mxCell id="cC9gz4I-F6fsXsZ66nNf-42" value="" style="shape=tableRow;horizontal=0;startSize=0;swimlaneHead=0;swimlaneBody=0;fillColor=none;collapsible=0;dropTarget=0;points=[[0,0.5],[1,0.5]];portConstraint=eastwest;top=0;left=0;right=0;bottom=0;" vertex="1" parent="cC9gz4I-F6fsXsZ66nNf-38">
          <mxGeometry y="60" width="180" height="30" as="geometry" />
        </mxCell>
        <mxCell id="cC9gz4I-F6fsXsZ66nNf-43" value="" style="shape=partialRectangle;connectable=0;fillColor=none;top=0;left=0;bottom=0;right=0;editable=1;overflow=hidden;whiteSpace=wrap;html=1;" vertex="1" parent="cC9gz4I-F6fsXsZ66nNf-42">
          <mxGeometry width="30" height="30" as="geometry">
            <mxRectangle width="30" height="30" as="alternateBounds" />
          </mxGeometry>
        </mxCell>
        <mxCell id="cC9gz4I-F6fsXsZ66nNf-44" value="Promotion Name" style="shape=partialRectangle;connectable=0;fillColor=none;top=0;left=0;bottom=0;right=0;align=left;spacingLeft=6;overflow=hidden;whiteSpace=wrap;html=1;" vertex="1" parent="cC9gz4I-F6fsXsZ66nNf-42">
          <mxGeometry x="30" width="150" height="30" as="geometry">
            <mxRectangle width="150" height="30" as="alternateBounds" />
          </mxGeometry>
        </mxCell>
        <mxCell id="cC9gz4I-F6fsXsZ66nNf-45" value="" style="shape=tableRow;horizontal=0;startSize=0;swimlaneHead=0;swimlaneBody=0;fillColor=none;collapsible=0;dropTarget=0;points=[[0,0.5],[1,0.5]];portConstraint=eastwest;top=0;left=0;right=0;bottom=0;" vertex="1" parent="cC9gz4I-F6fsXsZ66nNf-38">
          <mxGeometry y="90" width="180" height="30" as="geometry" />
        </mxCell>
        <mxCell id="cC9gz4I-F6fsXsZ66nNf-46" value="" style="shape=partialRectangle;connectable=0;fillColor=none;top=0;left=0;bottom=0;right=0;editable=1;overflow=hidden;whiteSpace=wrap;html=1;" vertex="1" parent="cC9gz4I-F6fsXsZ66nNf-45">
          <mxGeometry width="30" height="30" as="geometry">
            <mxRectangle width="30" height="30" as="alternateBounds" />
          </mxGeometry>
        </mxCell>
        <mxCell id="cC9gz4I-F6fsXsZ66nNf-47" value="Description" style="shape=partialRectangle;connectable=0;fillColor=none;top=0;left=0;bottom=0;right=0;align=left;spacingLeft=6;overflow=hidden;whiteSpace=wrap;html=1;" vertex="1" parent="cC9gz4I-F6fsXsZ66nNf-45">
          <mxGeometry x="30" width="150" height="30" as="geometry">
            <mxRectangle width="150" height="30" as="alternateBounds" />
          </mxGeometry>
        </mxCell>
        <mxCell id="cC9gz4I-F6fsXsZ66nNf-48" value="" style="shape=tableRow;horizontal=0;startSize=0;swimlaneHead=0;swimlaneBody=0;fillColor=none;collapsible=0;dropTarget=0;points=[[0,0.5],[1,0.5]];portConstraint=eastwest;top=0;left=0;right=0;bottom=0;" vertex="1" parent="cC9gz4I-F6fsXsZ66nNf-38">
          <mxGeometry y="120" width="180" height="30" as="geometry" />
        </mxCell>
        <mxCell id="cC9gz4I-F6fsXsZ66nNf-49" value="" style="shape=partialRectangle;connectable=0;fillColor=none;top=0;left=0;bottom=0;right=0;editable=1;overflow=hidden;whiteSpace=wrap;html=1;" vertex="1" parent="cC9gz4I-F6fsXsZ66nNf-48">
          <mxGeometry width="30" height="30" as="geometry">
            <mxRectangle width="30" height="30" as="alternateBounds" />
          </mxGeometry>
        </mxCell>
        <mxCell id="cC9gz4I-F6fsXsZ66nNf-50" value="DiscountPercentage" style="shape=partialRectangle;connectable=0;fillColor=none;top=0;left=0;bottom=0;right=0;align=left;spacingLeft=6;overflow=hidden;whiteSpace=wrap;html=1;" vertex="1" parent="cC9gz4I-F6fsXsZ66nNf-48">
          <mxGeometry x="30" width="150" height="30" as="geometry">
            <mxRectangle width="150" height="30" as="alternateBounds" />
          </mxGeometry>
        </mxCell>
        <mxCell id="cC9gz4I-F6fsXsZ66nNf-55" value="" style="shape=tableRow;horizontal=0;startSize=0;swimlaneHead=0;swimlaneBody=0;fillColor=none;collapsible=0;dropTarget=0;points=[[0,0.5],[1,0.5]];portConstraint=eastwest;top=0;left=0;right=0;bottom=0;" vertex="1" parent="cC9gz4I-F6fsXsZ66nNf-59">
          <mxGeometry y="196.36363636363635" width="180" height="32.72727272727273" as="geometry" />
        </mxCell>
        <mxCell id="cC9gz4I-F6fsXsZ66nNf-56" value="" style="shape=partialRectangle;connectable=0;fillColor=none;top=0;left=0;bottom=0;right=0;editable=1;overflow=hidden;whiteSpace=wrap;html=1;" vertex="1" parent="cC9gz4I-F6fsXsZ66nNf-55">
          <mxGeometry width="30" height="32.72727272727273" as="geometry">
            <mxRectangle width="30" height="30" as="alternateBounds" />
          </mxGeometry>
        </mxCell>
        <mxCell id="cC9gz4I-F6fsXsZ66nNf-58" value="" style="endArrow=none;html=1;rounded=0;entryX=0.167;entryY=0.985;entryDx=0;entryDy=0;entryPerimeter=0;" edge="1" parent="cC9gz4I-F6fsXsZ66nNf-59" target="cC9gz4I-F6fsXsZ66nNf-48">
          <mxGeometry width="50" height="50" relative="1" as="geometry">
            <mxPoint x="30" y="239.99999999999997" as="sourcePoint" />
            <mxPoint x="60" y="119.99999999999999" as="targetPoint" />
          </mxGeometry>
        </mxCell>
        <mxCell id="cC9gz4I-F6fsXsZ66nNf-52" value="" style="shape=tableRow;horizontal=0;startSize=0;swimlaneHead=0;swimlaneBody=0;fillColor=none;collapsible=0;dropTarget=0;points=[[0,0.5],[1,0.5]];portConstraint=eastwest;top=0;left=0;right=0;bottom=0;" vertex="1" parent="cC9gz4I-F6fsXsZ66nNf-59">
          <mxGeometry y="149.99636363636364" width="180" height="32.72727272727273" as="geometry" />
        </mxCell>
        <mxCell id="cC9gz4I-F6fsXsZ66nNf-53" value="" style="shape=partialRectangle;connectable=0;fillColor=none;top=0;left=0;bottom=0;right=0;editable=1;overflow=hidden;whiteSpace=wrap;html=1;" vertex="1" parent="cC9gz4I-F6fsXsZ66nNf-52">
          <mxGeometry width="30" height="32.72727272727273" as="geometry">
            <mxRectangle width="30" height="30" as="alternateBounds" />
          </mxGeometry>
        </mxCell>
        <mxCell id="cC9gz4I-F6fsXsZ66nNf-54" value="StartDate" style="shape=partialRectangle;connectable=0;fillColor=none;top=0;left=0;bottom=0;right=0;align=left;spacingLeft=6;overflow=hidden;whiteSpace=wrap;html=1;" vertex="1" parent="cC9gz4I-F6fsXsZ66nNf-52">
          <mxGeometry x="30" width="150" height="32.72727272727273" as="geometry">
            <mxRectangle width="150" height="30" as="alternateBounds" />
          </mxGeometry>
        </mxCell>
        <mxCell id="cC9gz4I-F6fsXsZ66nNf-57" value="EndDate" style="shape=partialRectangle;connectable=0;fillColor=none;top=0;left=0;bottom=0;right=0;align=left;spacingLeft=6;overflow=hidden;whiteSpace=wrap;html=1;" vertex="1" parent="cC9gz4I-F6fsXsZ66nNf-59">
          <mxGeometry x="30" y="182.72363636363627" width="150" height="32.72727272727273" as="geometry">
            <mxRectangle width="150" height="30" as="alternateBounds" />
          </mxGeometry>
        </mxCell>
        <mxCell id="cC9gz4I-F6fsXsZ66nNf-112" value="" style="shape=tableRow;horizontal=0;startSize=0;swimlaneHead=0;swimlaneBody=0;fillColor=none;collapsible=0;dropTarget=0;points=[[0,0.5],[1,0.5]];portConstraint=eastwest;top=0;left=0;right=0;bottom=0;" vertex="1" parent="cC9gz4I-F6fsXsZ66nNf-59">
          <mxGeometry y="210" width="180" height="30" as="geometry" />
        </mxCell>
        <mxCell id="cC9gz4I-F6fsXsZ66nNf-113" value="FK" style="shape=partialRectangle;connectable=0;fillColor=none;top=0;left=0;bottom=0;right=0;editable=1;overflow=hidden;whiteSpace=wrap;html=1;" vertex="1" parent="cC9gz4I-F6fsXsZ66nNf-112">
          <mxGeometry width="30" height="30" as="geometry">
            <mxRectangle width="30" height="30" as="alternateBounds" />
          </mxGeometry>
        </mxCell>
        <mxCell id="cC9gz4I-F6fsXsZ66nNf-114" value="ProductID" style="shape=partialRectangle;connectable=0;fillColor=none;top=0;left=0;bottom=0;right=0;align=left;spacingLeft=6;overflow=hidden;whiteSpace=wrap;html=1;" vertex="1" parent="cC9gz4I-F6fsXsZ66nNf-112">
          <mxGeometry x="30" width="150" height="30" as="geometry">
            <mxRectangle width="150" height="30" as="alternateBounds" />
          </mxGeometry>
        </mxCell>
        <mxCell id="cC9gz4I-F6fsXsZ66nNf-60" value="" style="group" vertex="1" connectable="0" parent="1">
          <mxGeometry x="95" y="1270" width="200" height="230" as="geometry" />
        </mxCell>
        <mxCell id="cC9gz4I-F6fsXsZ66nNf-109" value="" style="group" vertex="1" connectable="0" parent="cC9gz4I-F6fsXsZ66nNf-60">
          <mxGeometry x="20" y="20" width="180" height="210" as="geometry" />
        </mxCell>
        <mxCell id="cC9gz4I-F6fsXsZ66nNf-61" value="Customer" style="shape=table;startSize=30;container=1;collapsible=1;childLayout=tableLayout;fixedRows=1;rowLines=0;fontStyle=1;align=center;resizeLast=1;html=1;" vertex="1" parent="cC9gz4I-F6fsXsZ66nNf-109">
          <mxGeometry width="180" height="210" as="geometry" />
        </mxCell>
        <mxCell id="cC9gz4I-F6fsXsZ66nNf-62" value="" style="shape=tableRow;horizontal=0;startSize=0;swimlaneHead=0;swimlaneBody=0;fillColor=none;collapsible=0;dropTarget=0;points=[[0,0.5],[1,0.5]];portConstraint=eastwest;top=0;left=0;right=0;bottom=1;" vertex="1" parent="cC9gz4I-F6fsXsZ66nNf-61">
          <mxGeometry y="30" width="180" height="30" as="geometry" />
        </mxCell>
        <mxCell id="cC9gz4I-F6fsXsZ66nNf-63" value="PK" style="shape=partialRectangle;connectable=0;fillColor=none;top=0;left=0;bottom=0;right=0;fontStyle=1;overflow=hidden;whiteSpace=wrap;html=1;" vertex="1" parent="cC9gz4I-F6fsXsZ66nNf-62">
          <mxGeometry width="30" height="30" as="geometry">
            <mxRectangle width="30" height="30" as="alternateBounds" />
          </mxGeometry>
        </mxCell>
        <mxCell id="cC9gz4I-F6fsXsZ66nNf-64" value="CustomerID" style="shape=partialRectangle;connectable=0;fillColor=none;top=0;left=0;bottom=0;right=0;align=left;spacingLeft=6;fontStyle=5;overflow=hidden;whiteSpace=wrap;html=1;" vertex="1" parent="cC9gz4I-F6fsXsZ66nNf-62">
          <mxGeometry x="30" width="150" height="30" as="geometry">
            <mxRectangle width="150" height="30" as="alternateBounds" />
          </mxGeometry>
        </mxCell>
        <mxCell id="cC9gz4I-F6fsXsZ66nNf-65" value="" style="shape=tableRow;horizontal=0;startSize=0;swimlaneHead=0;swimlaneBody=0;fillColor=none;collapsible=0;dropTarget=0;points=[[0,0.5],[1,0.5]];portConstraint=eastwest;top=0;left=0;right=0;bottom=0;" vertex="1" parent="cC9gz4I-F6fsXsZ66nNf-61">
          <mxGeometry y="60" width="180" height="30" as="geometry" />
        </mxCell>
        <mxCell id="cC9gz4I-F6fsXsZ66nNf-66" value="" style="shape=partialRectangle;connectable=0;fillColor=none;top=0;left=0;bottom=0;right=0;editable=1;overflow=hidden;whiteSpace=wrap;html=1;" vertex="1" parent="cC9gz4I-F6fsXsZ66nNf-65">
          <mxGeometry width="30" height="30" as="geometry">
            <mxRectangle width="30" height="30" as="alternateBounds" />
          </mxGeometry>
        </mxCell>
        <mxCell id="cC9gz4I-F6fsXsZ66nNf-67" value="CustomerName" style="shape=partialRectangle;connectable=0;fillColor=none;top=0;left=0;bottom=0;right=0;align=left;spacingLeft=6;overflow=hidden;whiteSpace=wrap;html=1;" vertex="1" parent="cC9gz4I-F6fsXsZ66nNf-65">
          <mxGeometry x="30" width="150" height="30" as="geometry">
            <mxRectangle width="150" height="30" as="alternateBounds" />
          </mxGeometry>
        </mxCell>
        <mxCell id="cC9gz4I-F6fsXsZ66nNf-68" value="" style="shape=tableRow;horizontal=0;startSize=0;swimlaneHead=0;swimlaneBody=0;fillColor=none;collapsible=0;dropTarget=0;points=[[0,0.5],[1,0.5]];portConstraint=eastwest;top=0;left=0;right=0;bottom=0;" vertex="1" parent="cC9gz4I-F6fsXsZ66nNf-61">
          <mxGeometry y="90" width="180" height="30" as="geometry" />
        </mxCell>
        <mxCell id="cC9gz4I-F6fsXsZ66nNf-69" value="" style="shape=partialRectangle;connectable=0;fillColor=none;top=0;left=0;bottom=0;right=0;editable=1;overflow=hidden;whiteSpace=wrap;html=1;" vertex="1" parent="cC9gz4I-F6fsXsZ66nNf-68">
          <mxGeometry width="30" height="30" as="geometry">
            <mxRectangle width="30" height="30" as="alternateBounds" />
          </mxGeometry>
        </mxCell>
        <mxCell id="cC9gz4I-F6fsXsZ66nNf-70" value="CustomerEmail" style="shape=partialRectangle;connectable=0;fillColor=none;top=0;left=0;bottom=0;right=0;align=left;spacingLeft=6;overflow=hidden;whiteSpace=wrap;html=1;" vertex="1" parent="cC9gz4I-F6fsXsZ66nNf-68">
          <mxGeometry x="30" width="150" height="30" as="geometry">
            <mxRectangle width="150" height="30" as="alternateBounds" />
          </mxGeometry>
        </mxCell>
        <mxCell id="cC9gz4I-F6fsXsZ66nNf-71" value="" style="shape=tableRow;horizontal=0;startSize=0;swimlaneHead=0;swimlaneBody=0;fillColor=none;collapsible=0;dropTarget=0;points=[[0,0.5],[1,0.5]];portConstraint=eastwest;top=0;left=0;right=0;bottom=0;" vertex="1" parent="cC9gz4I-F6fsXsZ66nNf-61">
          <mxGeometry y="120" width="180" height="30" as="geometry" />
        </mxCell>
        <mxCell id="cC9gz4I-F6fsXsZ66nNf-72" value="" style="shape=partialRectangle;connectable=0;fillColor=none;top=0;left=0;bottom=0;right=0;editable=1;overflow=hidden;whiteSpace=wrap;html=1;" vertex="1" parent="cC9gz4I-F6fsXsZ66nNf-71">
          <mxGeometry width="30" height="30" as="geometry">
            <mxRectangle width="30" height="30" as="alternateBounds" />
          </mxGeometry>
        </mxCell>
        <mxCell id="cC9gz4I-F6fsXsZ66nNf-73" value="CustomerPhone" style="shape=partialRectangle;connectable=0;fillColor=none;top=0;left=0;bottom=0;right=0;align=left;spacingLeft=6;overflow=hidden;whiteSpace=wrap;html=1;" vertex="1" parent="cC9gz4I-F6fsXsZ66nNf-71">
          <mxGeometry x="30" width="150" height="30" as="geometry">
            <mxRectangle width="150" height="30" as="alternateBounds" />
          </mxGeometry>
        </mxCell>
        <mxCell id="cC9gz4I-F6fsXsZ66nNf-85" value="" style="endArrow=none;html=1;rounded=0;exitX=0.166;exitY=0.991;exitDx=0;exitDy=0;exitPerimeter=0;" edge="1" parent="cC9gz4I-F6fsXsZ66nNf-109" source="cC9gz4I-F6fsXsZ66nNf-82">
          <mxGeometry width="50" height="50" relative="1" as="geometry">
            <mxPoint x="10" y="180" as="sourcePoint" />
            <mxPoint x="30" y="150" as="targetPoint" />
          </mxGeometry>
        </mxCell>
        <mxCell id="cC9gz4I-F6fsXsZ66nNf-76" value="CustomerAddress" style="shape=partialRectangle;connectable=0;fillColor=none;top=0;left=0;bottom=0;right=0;align=left;spacingLeft=6;overflow=hidden;whiteSpace=wrap;html=1;" vertex="1" parent="cC9gz4I-F6fsXsZ66nNf-109">
          <mxGeometry x="30" y="150" width="150" height="30" as="geometry">
            <mxRectangle width="150" height="30" as="alternateBounds" />
          </mxGeometry>
        </mxCell>
        <mxCell id="cC9gz4I-F6fsXsZ66nNf-82" value="" style="shape=tableRow;horizontal=0;startSize=0;swimlaneHead=0;swimlaneBody=0;fillColor=none;collapsible=0;dropTarget=0;points=[[0,0.5],[1,0.5]];portConstraint=eastwest;top=0;left=0;right=0;bottom=0;" vertex="1" parent="cC9gz4I-F6fsXsZ66nNf-109">
          <mxGeometry y="180" width="180" height="30" as="geometry" />
        </mxCell>
        <mxCell id="cC9gz4I-F6fsXsZ66nNf-83" value="FK" style="shape=partialRectangle;connectable=0;fillColor=none;top=0;left=0;bottom=0;right=0;editable=1;overflow=hidden;whiteSpace=wrap;html=1;" vertex="1" parent="cC9gz4I-F6fsXsZ66nNf-82">
          <mxGeometry width="30" height="30" as="geometry">
            <mxRectangle width="30" height="30" as="alternateBounds" />
          </mxGeometry>
        </mxCell>
        <mxCell id="cC9gz4I-F6fsXsZ66nNf-84" value="BusinessID" style="shape=partialRectangle;connectable=0;fillColor=none;top=0;left=0;bottom=0;right=0;align=left;spacingLeft=6;overflow=hidden;whiteSpace=wrap;html=1;" vertex="1" parent="cC9gz4I-F6fsXsZ66nNf-82">
          <mxGeometry x="30" width="150" height="30" as="geometry">
            <mxRectangle width="150" height="30" as="alternateBounds" />
          </mxGeometry>
        </mxCell>
        <mxCell id="cC9gz4I-F6fsXsZ66nNf-106" value="" style="group" vertex="1" connectable="0" parent="1">
          <mxGeometry x="630" y="510" width="180" height="210" as="geometry" />
        </mxCell>
        <mxCell id="cC9gz4I-F6fsXsZ66nNf-86" value="Invoice" style="shape=table;startSize=30;container=1;collapsible=1;childLayout=tableLayout;fixedRows=1;rowLines=0;fontStyle=1;align=center;resizeLast=1;html=1;" vertex="1" parent="cC9gz4I-F6fsXsZ66nNf-106">
          <mxGeometry width="180" height="210" as="geometry" />
        </mxCell>
        <mxCell id="cC9gz4I-F6fsXsZ66nNf-87" value="" style="shape=tableRow;horizontal=0;startSize=0;swimlaneHead=0;swimlaneBody=0;fillColor=none;collapsible=0;dropTarget=0;points=[[0,0.5],[1,0.5]];portConstraint=eastwest;top=0;left=0;right=0;bottom=1;" vertex="1" parent="cC9gz4I-F6fsXsZ66nNf-86">
          <mxGeometry y="30" width="180" height="30" as="geometry" />
        </mxCell>
        <mxCell id="cC9gz4I-F6fsXsZ66nNf-88" value="PK" style="shape=partialRectangle;connectable=0;fillColor=none;top=0;left=0;bottom=0;right=0;fontStyle=1;overflow=hidden;whiteSpace=wrap;html=1;" vertex="1" parent="cC9gz4I-F6fsXsZ66nNf-87">
          <mxGeometry width="30" height="30" as="geometry">
            <mxRectangle width="30" height="30" as="alternateBounds" />
          </mxGeometry>
        </mxCell>
        <mxCell id="cC9gz4I-F6fsXsZ66nNf-89" value="InvoiceID" style="shape=partialRectangle;connectable=0;fillColor=none;top=0;left=0;bottom=0;right=0;align=left;spacingLeft=6;fontStyle=5;overflow=hidden;whiteSpace=wrap;html=1;" vertex="1" parent="cC9gz4I-F6fsXsZ66nNf-87">
          <mxGeometry x="30" width="150" height="30" as="geometry">
            <mxRectangle width="150" height="30" as="alternateBounds" />
          </mxGeometry>
        </mxCell>
        <mxCell id="cC9gz4I-F6fsXsZ66nNf-90" value="" style="shape=tableRow;horizontal=0;startSize=0;swimlaneHead=0;swimlaneBody=0;fillColor=none;collapsible=0;dropTarget=0;points=[[0,0.5],[1,0.5]];portConstraint=eastwest;top=0;left=0;right=0;bottom=0;" vertex="1" parent="cC9gz4I-F6fsXsZ66nNf-86">
          <mxGeometry y="60" width="180" height="30" as="geometry" />
        </mxCell>
        <mxCell id="cC9gz4I-F6fsXsZ66nNf-91" value="FK" style="shape=partialRectangle;connectable=0;fillColor=none;top=0;left=0;bottom=0;right=0;editable=1;overflow=hidden;whiteSpace=wrap;html=1;" vertex="1" parent="cC9gz4I-F6fsXsZ66nNf-90">
          <mxGeometry width="30" height="30" as="geometry">
            <mxRectangle width="30" height="30" as="alternateBounds" />
          </mxGeometry>
        </mxCell>
        <mxCell id="cC9gz4I-F6fsXsZ66nNf-92" value="OrderID" style="shape=partialRectangle;connectable=0;fillColor=none;top=0;left=0;bottom=0;right=0;align=left;spacingLeft=6;overflow=hidden;whiteSpace=wrap;html=1;" vertex="1" parent="cC9gz4I-F6fsXsZ66nNf-90">
          <mxGeometry x="30" width="150" height="30" as="geometry">
            <mxRectangle width="150" height="30" as="alternateBounds" />
          </mxGeometry>
        </mxCell>
        <mxCell id="cC9gz4I-F6fsXsZ66nNf-93" value="" style="shape=tableRow;horizontal=0;startSize=0;swimlaneHead=0;swimlaneBody=0;fillColor=none;collapsible=0;dropTarget=0;points=[[0,0.5],[1,0.5]];portConstraint=eastwest;top=0;left=0;right=0;bottom=0;" vertex="1" parent="cC9gz4I-F6fsXsZ66nNf-86">
          <mxGeometry y="90" width="180" height="30" as="geometry" />
        </mxCell>
        <mxCell id="cC9gz4I-F6fsXsZ66nNf-94" value="" style="shape=partialRectangle;connectable=0;fillColor=none;top=0;left=0;bottom=0;right=0;editable=1;overflow=hidden;whiteSpace=wrap;html=1;" vertex="1" parent="cC9gz4I-F6fsXsZ66nNf-93">
          <mxGeometry width="30" height="30" as="geometry">
            <mxRectangle width="30" height="30" as="alternateBounds" />
          </mxGeometry>
        </mxCell>
        <mxCell id="cC9gz4I-F6fsXsZ66nNf-95" value="InvoiceDate" style="shape=partialRectangle;connectable=0;fillColor=none;top=0;left=0;bottom=0;right=0;align=left;spacingLeft=6;overflow=hidden;whiteSpace=wrap;html=1;" vertex="1" parent="cC9gz4I-F6fsXsZ66nNf-93">
          <mxGeometry x="30" width="150" height="30" as="geometry">
            <mxRectangle width="150" height="30" as="alternateBounds" />
          </mxGeometry>
        </mxCell>
        <mxCell id="cC9gz4I-F6fsXsZ66nNf-96" value="" style="shape=tableRow;horizontal=0;startSize=0;swimlaneHead=0;swimlaneBody=0;fillColor=none;collapsible=0;dropTarget=0;points=[[0,0.5],[1,0.5]];portConstraint=eastwest;top=0;left=0;right=0;bottom=0;" vertex="1" parent="cC9gz4I-F6fsXsZ66nNf-86">
          <mxGeometry y="120" width="180" height="30" as="geometry" />
        </mxCell>
        <mxCell id="cC9gz4I-F6fsXsZ66nNf-97" value="" style="shape=partialRectangle;connectable=0;fillColor=none;top=0;left=0;bottom=0;right=0;editable=1;overflow=hidden;whiteSpace=wrap;html=1;" vertex="1" parent="cC9gz4I-F6fsXsZ66nNf-96">
          <mxGeometry width="30" height="30" as="geometry">
            <mxRectangle width="30" height="30" as="alternateBounds" />
          </mxGeometry>
        </mxCell>
        <mxCell id="cC9gz4I-F6fsXsZ66nNf-98" value="Amount" style="shape=partialRectangle;connectable=0;fillColor=none;top=0;left=0;bottom=0;right=0;align=left;spacingLeft=6;overflow=hidden;whiteSpace=wrap;html=1;" vertex="1" parent="cC9gz4I-F6fsXsZ66nNf-96">
          <mxGeometry x="30" width="150" height="30" as="geometry">
            <mxRectangle width="150" height="30" as="alternateBounds" />
          </mxGeometry>
        </mxCell>
        <mxCell id="cC9gz4I-F6fsXsZ66nNf-99" value="" style="shape=tableRow;horizontal=0;startSize=0;swimlaneHead=0;swimlaneBody=0;fillColor=none;collapsible=0;dropTarget=0;points=[[0,0.5],[1,0.5]];portConstraint=eastwest;top=0;left=0;right=0;bottom=0;" vertex="1" parent="cC9gz4I-F6fsXsZ66nNf-106">
          <mxGeometry y="150" width="180" height="30" as="geometry" />
        </mxCell>
        <mxCell id="cC9gz4I-F6fsXsZ66nNf-100" value="" style="shape=partialRectangle;connectable=0;fillColor=none;top=0;left=0;bottom=0;right=0;editable=1;overflow=hidden;whiteSpace=wrap;html=1;" vertex="1" parent="cC9gz4I-F6fsXsZ66nNf-99">
          <mxGeometry width="30" height="30" as="geometry">
            <mxRectangle width="30" height="30" as="alternateBounds" />
          </mxGeometry>
        </mxCell>
        <mxCell id="cC9gz4I-F6fsXsZ66nNf-101" value="BillingAddress" style="shape=partialRectangle;connectable=0;fillColor=none;top=0;left=0;bottom=0;right=0;align=left;spacingLeft=6;overflow=hidden;whiteSpace=wrap;html=1;" vertex="1" parent="cC9gz4I-F6fsXsZ66nNf-99">
          <mxGeometry x="30" width="150" height="30" as="geometry">
            <mxRectangle width="150" height="30" as="alternateBounds" />
          </mxGeometry>
        </mxCell>
        <mxCell id="cC9gz4I-F6fsXsZ66nNf-102" value="" style="shape=tableRow;horizontal=0;startSize=0;swimlaneHead=0;swimlaneBody=0;fillColor=none;collapsible=0;dropTarget=0;points=[[0,0.5],[1,0.5]];portConstraint=eastwest;top=0;left=0;right=0;bottom=0;" vertex="1" parent="cC9gz4I-F6fsXsZ66nNf-106">
          <mxGeometry y="180" width="180" height="30" as="geometry" />
        </mxCell>
        <mxCell id="cC9gz4I-F6fsXsZ66nNf-103" value="" style="shape=partialRectangle;connectable=0;fillColor=none;top=0;left=0;bottom=0;right=0;editable=1;overflow=hidden;whiteSpace=wrap;html=1;" vertex="1" parent="cC9gz4I-F6fsXsZ66nNf-102">
          <mxGeometry width="30" height="30" as="geometry">
            <mxRectangle width="30" height="30" as="alternateBounds" />
          </mxGeometry>
        </mxCell>
        <mxCell id="cC9gz4I-F6fsXsZ66nNf-104" value="Status" style="shape=partialRectangle;connectable=0;fillColor=none;top=0;left=0;bottom=0;right=0;align=left;spacingLeft=6;overflow=hidden;whiteSpace=wrap;html=1;" vertex="1" parent="cC9gz4I-F6fsXsZ66nNf-102">
          <mxGeometry x="30" width="150" height="30" as="geometry">
            <mxRectangle width="150" height="30" as="alternateBounds" />
          </mxGeometry>
        </mxCell>
        <mxCell id="cC9gz4I-F6fsXsZ66nNf-105" value="" style="endArrow=none;html=1;rounded=0;exitX=0.166;exitY=1.002;exitDx=0;exitDy=0;exitPerimeter=0;entryX=0.166;entryY=-0.005;entryDx=0;entryDy=0;entryPerimeter=0;" edge="1" parent="cC9gz4I-F6fsXsZ66nNf-106" source="cC9gz4I-F6fsXsZ66nNf-102" target="cC9gz4I-F6fsXsZ66nNf-99">
          <mxGeometry width="50" height="50" relative="1" as="geometry">
            <mxPoint x="20" y="200" as="sourcePoint" />
            <mxPoint x="70" y="150" as="targetPoint" />
          </mxGeometry>
        </mxCell>
        <mxCell id="cC9gz4I-F6fsXsZ66nNf-108" style="edgeStyle=orthogonalEdgeStyle;rounded=0;orthogonalLoop=1;jettySize=auto;html=1;entryX=0;entryY=0.5;entryDx=0;entryDy=0;startArrow=ERmany;startFill=0;endArrow=ERmany;endFill=0;" edge="1" parent="1" target="cC9gz4I-F6fsXsZ66nNf-26">
          <mxGeometry relative="1" as="geometry">
            <mxPoint x="90" y="794.9411764705881" as="sourcePoint" />
            <mxPoint x="610" y="654.9999999999998" as="targetPoint" />
            <Array as="points">
              <mxPoint x="60" y="795" />
              <mxPoint x="60" y="740" />
              <mxPoint x="310" y="740" />
              <mxPoint x="310" y="680" />
              <mxPoint x="580" y="680" />
              <mxPoint x="580" y="835" />
            </Array>
          </mxGeometry>
        </mxCell>
        <mxCell id="cC9gz4I-F6fsXsZ66nNf-111" style="edgeStyle=orthogonalEdgeStyle;rounded=0;orthogonalLoop=1;jettySize=auto;html=1;entryX=0;entryY=0.5;entryDx=0;entryDy=0;startArrow=ERone;startFill=0;endArrow=ERmany;endFill=0;" edge="1" parent="1" source="DOXmJgNx25OAnM6Lbmhb-30" target="cC9gz4I-F6fsXsZ66nNf-82">
          <mxGeometry relative="1" as="geometry">
            <Array as="points">
              <mxPoint x="40" y="555" />
              <mxPoint x="40" y="1485" />
            </Array>
          </mxGeometry>
        </mxCell>
        <mxCell id="cC9gz4I-F6fsXsZ66nNf-115" style="edgeStyle=orthogonalEdgeStyle;rounded=0;orthogonalLoop=1;jettySize=auto;html=1;entryX=0;entryY=0.5;entryDx=0;entryDy=0;startArrow=ERmany;startFill=0;endArrow=ERmany;endFill=0;" edge="1" parent="1" source="DOXmJgNx25OAnM6Lbmhb-50" target="cC9gz4I-F6fsXsZ66nNf-112">
          <mxGeometry relative="1" as="geometry">
            <Array as="points">
              <mxPoint x="60" y="795" />
              <mxPoint x="60" y="1020" />
              <mxPoint x="340" y="1020" />
              <mxPoint x="340" y="1395" />
            </Array>
          </mxGeometry>
        </mxCell>
        <mxCell id="cC9gz4I-F6fsXsZ66nNf-117" style="edgeStyle=orthogonalEdgeStyle;rounded=0;orthogonalLoop=1;jettySize=auto;html=1;entryX=0;entryY=0.5;entryDx=0;entryDy=0;startArrow=ERone;startFill=0;endArrow=ERone;endFill=0;" edge="1" parent="1" source="DOXmJgNx25OAnM6Lbmhb-70" target="cC9gz4I-F6fsXsZ66nNf-90">
          <mxGeometry relative="1" as="geometry">
            <Array as="points">
              <mxPoint x="600" y="535" />
              <mxPoint x="600" y="585" />
            </Array>
          </mxGeometry>
        </mxCell>
        <mxCell id="cC9gz4I-F6fsXsZ66nNf-118" style="edgeStyle=orthogonalEdgeStyle;rounded=0;orthogonalLoop=1;jettySize=auto;html=1;entryX=0;entryY=0.5;entryDx=0;entryDy=0;startArrow=ERone;startFill=0;endArrow=ERmany;endFill=0;" edge="1" parent="1" source="DOXmJgNx25OAnM6Lbmhb-70" target="cC9gz4I-F6fsXsZ66nNf-23">
          <mxGeometry relative="1" as="geometry">
            <Array as="points">
              <mxPoint x="600" y="535" />
              <mxPoint x="600" y="805" />
            </Array>
          </mxGeometry>
        </mxCell>
        <mxCell id="cC9gz4I-F6fsXsZ66nNf-126" value="" style="group" vertex="1" connectable="0" parent="1">
          <mxGeometry x="380" y="850" width="240" height="210" as="geometry" />
        </mxCell>
        <mxCell id="DOXmJgNx25OAnM6Lbmhb-118" value="Notification" style="shape=table;startSize=30;container=1;collapsible=1;childLayout=tableLayout;fixedRows=1;rowLines=0;fontStyle=1;align=center;resizeLast=1;html=1;" parent="cC9gz4I-F6fsXsZ66nNf-126" vertex="1">
          <mxGeometry width="240" height="210" as="geometry" />
        </mxCell>
        <mxCell id="DOXmJgNx25OAnM6Lbmhb-119" value="" style="shape=tableRow;horizontal=0;startSize=0;swimlaneHead=0;swimlaneBody=0;fillColor=none;collapsible=0;dropTarget=0;points=[[0,0.5],[1,0.5]];portConstraint=eastwest;top=0;left=0;right=0;bottom=1;" parent="DOXmJgNx25OAnM6Lbmhb-118" vertex="1">
          <mxGeometry y="30" width="240" height="30" as="geometry" />
        </mxCell>
        <mxCell id="DOXmJgNx25OAnM6Lbmhb-120" value="PK" style="shape=partialRectangle;connectable=0;fillColor=none;top=0;left=0;bottom=0;right=0;fontStyle=1;overflow=hidden;whiteSpace=wrap;html=1;" parent="DOXmJgNx25OAnM6Lbmhb-119" vertex="1">
          <mxGeometry width="30" height="30" as="geometry">
            <mxRectangle width="30" height="30" as="alternateBounds" />
          </mxGeometry>
        </mxCell>
        <mxCell id="DOXmJgNx25OAnM6Lbmhb-121" value="NotificationID" style="shape=partialRectangle;connectable=0;fillColor=none;top=0;left=0;bottom=0;right=0;align=left;spacingLeft=6;fontStyle=5;overflow=hidden;whiteSpace=wrap;html=1;" parent="DOXmJgNx25OAnM6Lbmhb-119" vertex="1">
          <mxGeometry x="30" width="210" height="30" as="geometry">
            <mxRectangle width="210" height="30" as="alternateBounds" />
          </mxGeometry>
        </mxCell>
        <mxCell id="DOXmJgNx25OAnM6Lbmhb-122" value="" style="shape=tableRow;horizontal=0;startSize=0;swimlaneHead=0;swimlaneBody=0;fillColor=none;collapsible=0;dropTarget=0;points=[[0,0.5],[1,0.5]];portConstraint=eastwest;top=0;left=0;right=0;bottom=0;" parent="DOXmJgNx25OAnM6Lbmhb-118" vertex="1">
          <mxGeometry y="60" width="240" height="30" as="geometry" />
        </mxCell>
        <mxCell id="DOXmJgNx25OAnM6Lbmhb-123" value="" style="shape=partialRectangle;connectable=0;fillColor=none;top=0;left=0;bottom=0;right=0;editable=1;overflow=hidden;whiteSpace=wrap;html=1;" parent="DOXmJgNx25OAnM6Lbmhb-122" vertex="1">
          <mxGeometry width="30" height="30" as="geometry">
            <mxRectangle width="30" height="30" as="alternateBounds" />
          </mxGeometry>
        </mxCell>
        <mxCell id="DOXmJgNx25OAnM6Lbmhb-124" value="Message" style="shape=partialRectangle;connectable=0;fillColor=none;top=0;left=0;bottom=0;right=0;align=left;spacingLeft=6;overflow=hidden;whiteSpace=wrap;html=1;" parent="DOXmJgNx25OAnM6Lbmhb-122" vertex="1">
          <mxGeometry x="30" width="210" height="30" as="geometry">
            <mxRectangle width="210" height="30" as="alternateBounds" />
          </mxGeometry>
        </mxCell>
        <mxCell id="DOXmJgNx25OAnM6Lbmhb-125" value="" style="shape=tableRow;horizontal=0;startSize=0;swimlaneHead=0;swimlaneBody=0;fillColor=none;collapsible=0;dropTarget=0;points=[[0,0.5],[1,0.5]];portConstraint=eastwest;top=0;left=0;right=0;bottom=0;" parent="DOXmJgNx25OAnM6Lbmhb-118" vertex="1">
          <mxGeometry y="90" width="240" height="30" as="geometry" />
        </mxCell>
        <mxCell id="DOXmJgNx25OAnM6Lbmhb-126" value="" style="shape=partialRectangle;connectable=0;fillColor=none;top=0;left=0;bottom=0;right=0;editable=1;overflow=hidden;whiteSpace=wrap;html=1;" parent="DOXmJgNx25OAnM6Lbmhb-125" vertex="1">
          <mxGeometry width="30" height="30" as="geometry">
            <mxRectangle width="30" height="30" as="alternateBounds" />
          </mxGeometry>
        </mxCell>
        <mxCell id="DOXmJgNx25OAnM6Lbmhb-127" value="Date" style="shape=partialRectangle;connectable=0;fillColor=none;top=0;left=0;bottom=0;right=0;align=left;spacingLeft=6;overflow=hidden;whiteSpace=wrap;html=1;" parent="DOXmJgNx25OAnM6Lbmhb-125" vertex="1">
          <mxGeometry x="30" width="210" height="30" as="geometry">
            <mxRectangle width="210" height="30" as="alternateBounds" />
          </mxGeometry>
        </mxCell>
        <mxCell id="DOXmJgNx25OAnM6Lbmhb-128" value="" style="shape=tableRow;horizontal=0;startSize=0;swimlaneHead=0;swimlaneBody=0;fillColor=none;collapsible=0;dropTarget=0;points=[[0,0.5],[1,0.5]];portConstraint=eastwest;top=0;left=0;right=0;bottom=0;" parent="DOXmJgNx25OAnM6Lbmhb-118" vertex="1">
          <mxGeometry y="120" width="240" height="30" as="geometry" />
        </mxCell>
        <mxCell id="DOXmJgNx25OAnM6Lbmhb-129" value="FK" style="shape=partialRectangle;connectable=0;fillColor=none;top=0;left=0;bottom=0;right=0;editable=1;overflow=hidden;whiteSpace=wrap;html=1;" parent="DOXmJgNx25OAnM6Lbmhb-128" vertex="1">
          <mxGeometry width="30" height="30" as="geometry">
            <mxRectangle width="30" height="30" as="alternateBounds" />
          </mxGeometry>
        </mxCell>
        <mxCell id="DOXmJgNx25OAnM6Lbmhb-130" value="UserID" style="shape=partialRectangle;connectable=0;fillColor=none;top=0;left=0;bottom=0;right=0;align=left;spacingLeft=6;overflow=hidden;whiteSpace=wrap;html=1;" parent="DOXmJgNx25OAnM6Lbmhb-128" vertex="1">
          <mxGeometry x="30" width="210" height="30" as="geometry">
            <mxRectangle width="210" height="30" as="alternateBounds" />
          </mxGeometry>
        </mxCell>
        <mxCell id="cC9gz4I-F6fsXsZ66nNf-119" value="" style="shape=tableRow;horizontal=0;startSize=0;swimlaneHead=0;swimlaneBody=0;fillColor=none;collapsible=0;dropTarget=0;points=[[0,0.5],[1,0.5]];portConstraint=eastwest;top=0;left=0;right=0;bottom=0;" vertex="1" parent="cC9gz4I-F6fsXsZ66nNf-126">
          <mxGeometry y="150" width="180" height="30" as="geometry" />
        </mxCell>
        <mxCell id="cC9gz4I-F6fsXsZ66nNf-120" value="" style="shape=partialRectangle;connectable=0;fillColor=none;top=0;left=0;bottom=0;right=0;editable=1;overflow=hidden;whiteSpace=wrap;html=1;" vertex="1" parent="cC9gz4I-F6fsXsZ66nNf-119">
          <mxGeometry width="30" height="30" as="geometry">
            <mxRectangle width="30" height="30" as="alternateBounds" />
          </mxGeometry>
        </mxCell>
        <mxCell id="cC9gz4I-F6fsXsZ66nNf-121" value="Type (Order, Promotion)" style="shape=partialRectangle;connectable=0;fillColor=none;top=0;left=0;bottom=0;right=0;align=left;spacingLeft=6;overflow=hidden;whiteSpace=wrap;html=1;" vertex="1" parent="cC9gz4I-F6fsXsZ66nNf-119">
          <mxGeometry x="30" width="150" height="30" as="geometry">
            <mxRectangle width="150" height="30" as="alternateBounds" />
          </mxGeometry>
        </mxCell>
        <mxCell id="cC9gz4I-F6fsXsZ66nNf-122" value="" style="shape=tableRow;horizontal=0;startSize=0;swimlaneHead=0;swimlaneBody=0;fillColor=none;collapsible=0;dropTarget=0;points=[[0,0.5],[1,0.5]];portConstraint=eastwest;top=0;left=0;right=0;bottom=0;" vertex="1" parent="cC9gz4I-F6fsXsZ66nNf-126">
          <mxGeometry y="180" width="240" height="30" as="geometry" />
        </mxCell>
        <mxCell id="cC9gz4I-F6fsXsZ66nNf-123" value="" style="shape=partialRectangle;connectable=0;fillColor=none;top=0;left=0;bottom=0;right=0;editable=1;overflow=hidden;whiteSpace=wrap;html=1;" vertex="1" parent="cC9gz4I-F6fsXsZ66nNf-122">
          <mxGeometry width="30" height="30" as="geometry">
            <mxRectangle width="30" height="30" as="alternateBounds" />
          </mxGeometry>
        </mxCell>
        <mxCell id="cC9gz4I-F6fsXsZ66nNf-124" value="Status (UNREAD, READ, DELETED)" style="shape=partialRectangle;connectable=0;fillColor=none;top=0;left=0;bottom=0;right=0;align=left;spacingLeft=6;overflow=hidden;whiteSpace=wrap;html=1;" vertex="1" parent="cC9gz4I-F6fsXsZ66nNf-122">
          <mxGeometry x="30" width="210" height="30" as="geometry">
            <mxRectangle width="150" height="30" as="alternateBounds" />
          </mxGeometry>
        </mxCell>
        <mxCell id="cC9gz4I-F6fsXsZ66nNf-125" value="" style="endArrow=none;html=1;rounded=0;entryX=0.167;entryY=-0.007;entryDx=0;entryDy=0;entryPerimeter=0;" edge="1" parent="cC9gz4I-F6fsXsZ66nNf-126" target="cC9gz4I-F6fsXsZ66nNf-119">
          <mxGeometry width="50" height="50" relative="1" as="geometry">
            <mxPoint x="30" y="210" as="sourcePoint" />
            <mxPoint x="80" y="160" as="targetPoint" />
          </mxGeometry>
        </mxCell>
      </root>
    </mxGraphModel>
  </diagram>
</mxfile>
